<svg width="45" height="43" viewBox="0 0 45 43" fill="none" xmlns="http://www.w3.org/2000/svg">
<g clip-path="url(#clip0_71_111)">
<path d="M8.29167 0H36.7083C41.0167 0 44.5 3.48333 44.5 7.79167V35.1083C44.5 39.4167 41.0167 42.9 36.7083 42.9H8.29167C3.98333 42.9 0.5 39.4167 0.5 35.1083V7.79167C0.5 3.48333 3.98333 0 8.29167 0Z" fill="#EB1000"/>
<path d="M34.71 32.2667H29.485C29.0266 32.2667 28.605 32.01 28.4216 31.57L22.7566 18.2967C22.72 18.1683 22.5733 18.095 22.445 18.1317C22.3716 18.15 22.2983 18.2233 22.28 18.2967L18.7416 26.7117C18.6683 26.8583 18.7416 27.0417 18.9066 27.0967C18.9433 27.115 18.98 27.115 19.0166 27.115H22.9033C23.1416 27.115 23.3616 27.2617 23.4533 27.4817L25.1583 31.2767C25.305 31.625 25.14 32.0467 24.7916 32.1933C24.7 32.23 24.6083 32.2483 24.5166 32.2483H10.345C9.99664 32.2483 9.70331 31.955 9.70331 31.6067C9.70331 31.515 9.72164 31.4417 9.75831 31.35L18.76 9.91833C18.9433 9.45999 19.4016 9.14833 19.8966 9.16666H25.085C25.58 9.16666 26.0383 9.45999 26.2216 9.91833L35.2966 31.35C35.4433 31.68 35.2783 32.065 34.9666 32.1933C34.875 32.23 34.8016 32.2483 34.71 32.2667Z" fill="white"/>
</g>
<defs>
<clipPath id="clip0_71_111">
<rect width="44" height="42.9" fill="white" transform="translate(0.5)"/>
</clipPath>
</defs>
</svg>
