<svg version="1.2" xmlns="http://www.w3.org/2000/svg" viewBox="0 0 566 566" width="566" height="566">
	<title>Gulp-svg</title>
	<style>
		.s0 { fill: #d34a47 } 
		.s1 { fill: #ffffff } 
	</style>
	<path class="s0" d="m352.3 548.7l5.4-90.4 15-25.6c0 0-34.1 14-91.2 14-57.1 0-90.7-13.7-90.7-13.7l16.8 27.9 5.9 87.8c0 9.5 31.1 17.1 69.4 17.1 38.3 0 69.4-7.6 69.4-17.1zm-17.1-422.2l11.4-45.1 63-66.3-16.6-14.2-66.8 70.7-13.2 53.8q-3.7-0.1-7.5-0.2-3.7-0.1-7.4-0.2-3.8 0-7.5-0.1-3.7 0-7.5 0c-70.3 0-127.3 8-127.3 17.9 0 9.9 57 17.9 127.3 17.9 70.4 0 127.4-8 127.4-17.9 0-7.3-30.9-13.5-75.3-16.3z"/>
	<path class="s1" d="m328.5 151.7c0 0-2.4 0.5-9.7 0.6-7.2 0-12.4-0.1-14.5-2-0.5-0.5-0.8-1.5-0.8-2.1 0-1.3 0.9-2.1 2.1-2.6l1.1 1.8c-0.5 0.1-0.8 0.3-0.8 0.5 0 1 7.4 1.7 13.1 1.6 5.7-0.1 12.6-0.5 12.6-1.5 0-0.3-0.5-0.6-1.4-0.8l1-1.7c1.5 0.5 2.8 1.4 2.8 2.9 0 2.6-3.3 3-5.5 3.3z"/>
	<path class="s0" d="m409.5 15.2c1.6-1.8-0.8-6.5-5.4-10.5-4.5-3.9-9.5-5.6-11.1-3.8-1.6 1.8 0.8 6.5 5.4 10.5 4.5 3.9 9.5 5.6 11.1 3.8zm-60.3 312.7c-1.4-14.4 31.5-35.3 23-35.9-18.2 1-27.2 21.3-36.4 42.6-3.3 7.8-14.8 41-22.4 36.9-7.5-4.1 9.8-31.4 14.7-47.6-5.6 4.1-26.2 20-31.4 5.1-8.5 7.2-26.7 11.1-24.7-7.8-4.5 8-14.6 19.1-26.8 14.5-16-6.1 9.3-57.1 15.5-54.5 6.3 2.6-1.2 14.2-3.2 18.7-4.4 9.9-9.4 22.4-6 24.9 5.7 4.4 21.4-16.5 21.7-17 3-3.8 11.3-29.1 18-26.2 6.7 2.9-16.7 36.3-8 42.9 1.8 1.3 9-0.8 13.5-5.6 2.8-3.1 1.8-9.9 11.3-32.6 9.5-22.6 18-50.9 24.5-48.7 6.6 2.1 1.2 16.6-1.2 22-10.9 25.4-29.9 67.3-21 64.1 9-3.2 13.6-3.4 22.4-13.6 8.8-10.3 8.4-27.2 14.2-26.8 5.9 0.3 4.9 5.8 3.5 9.9 5.7-6.6 27.2-20.5 32.4-6.7 6.2 16.2-30.8 39.7-21.6 38.5 9-1.2 23.6-10.4 29.8-18.8l17.1-153.6c0 0-17.2 14.2-126.6 14.2-109.4 0-124.8-13.9-124.8-13.9l14.5 140.2c7.7-21.9 26.1-66.3 55-64.8 13.1 0.7 30.7 26 15.6 26.8-6.3 0.4-7-12.6-14.5-14.5-5.4-1.4-13 3-17.9 7.8-9.8 9.6-30.8 47.3-28 66 3.5 24 33.1-8.3 38.1-17.9 3.5-6.7 5.8-26.7 13.5-24.6 7.7 2.1-0.6 22.7-6.2 41-6.3 20.5-9.6 42.1-17.4 39.6-7.9-2.5 4.9-29 4.5-33.6-7.4 6.8-21 24.1-38.4 15.5l9 87.1c0 0 24 19 96.4 19 72.3 0 97.2-18.7 97.2-18.7l11.2-100.9c-9.1 9-38.2 24.9-40.1 7z"/>
</svg>