<svg version="1.2" xmlns="http://www.w3.org/2000/svg" viewBox="0 0 417 417" width="417" height="417">
	<title>Jenkins-svg</title>
	<style>
		.s0 { fill: #d33833 } 
		.s1 { fill: #ef3d3a } 
		.s2 { fill: #231f20 } 
		.s3 { fill: #f0d6b7 } 
		.s4 { fill: #335061 } 
		.s5 { fill: #6d6b6d } 
		.s6 { fill: #dcd9d8 } 
		.s7 { fill: #f7e4cd } 
		.s8 { fill: #49728b } 
		.s9 { fill: #ffffff } 
		.s10 { fill: #000000;stroke: #d33833;stroke-width: 2 } 
		.s11 { fill: #81b0c4 } 
		.s12 { fill: #1d1919 } 
	</style>
	<path class="s0" d="m330.7 169.3c0 69.4-55 125.8-123 125.8-68 0-123-56.4-123-125.8 0-69.5 55-125.8 123-125.8 68 0 123 56.3 123 125.8z"/>
	<path class="s1" d="m89.7 200.4c0 0-8.9-131.1 112-134.9l-8.4-14.1-65.6 22-18.7 21.6-16.4 31.3-9.3 36.5 2.8 24.4"/>
	<path fill-rule="evenodd" class="s2" d="m118 261.4c-22.9-23.5-37.1-55.9-37.1-91.6 0-35.7 14.2-68.2 37.1-91.7 22.9-23.4 54.7-38 89.7-38 35 0 66.8 14.6 89.7 38 22.9 23.4 37.1 55.9 37.1 91.7 0 35.7-14.2 68.1-37.1 91.6-22.9 23.5-54.7 38-89.7 38-35 0-66.8-14.5-89.7-38zm5.5-178c-21.6 22.2-35 52.6-35 86.4 0 33.7 13.4 64.2 35 86.3 21.6 22.1 51.3 35.7 84.2 35.7 32.9 0 62.6-13.6 84.2-35.7 21.6-22.1 35-52.6 35-86.3 0-33.8-13.4-64.2-35-86.4-21.6-22-51.3-35.7-84.2-35.7-32.8 0-62.6 13.6-84.2 35.7z"/>
	<path class="s3" d="m259.5 170l-18.8 2.8-25.3 2.8-16.3 0.4-16-0.5-12.2-3.7-10.8-11.8-8.5-23.9-1.8-5.1-11.3-3.8-6.5-10.8-4.7-15.5 5.2-13.6 12.2-4.2 9.8 4.6 4.7 10.3 5.6-0.9 1.9-2.3-1.9-10.9-0.5-13.6 2.8-18.7-0.1-10.7 8.6-13.7 14.9-10.8 26.2-11.2 29.1 4.2 25.3 18.3 11.7 18.7 7.6 13.6 1.8 33.8-5.6 29-10.3 25.8-9.8 13.8"/>
	<path class="s4" d="m243.6 251l-67 2.8v11.2l5.7 39.4-2.8 3.3-46.8-16-3.3-5.6-4.6-53-11.1-31.8-2.3-7.5 37.5-25.8 11.7-4.7 10.3 12.7 8.9 8 10.3 3.2 4.7 1.4 5.7 24.4 4.2 5.2 10.8-3.8-7.5 14.6 40.7 19.3c0 0-5.1 2.7-5.1 2.7z"/>
	<path class="s5" d="m132.5 87.5l12.2-4.3 9.8 4.7 4.7 10.3 5.6-0.9 1.4-5.6-2.8-10.8 2.8-25.8-2.4-14.1 8.5-9.8 18.2-14.5-5.1-7.1-25.8 12.7-10.8 8.5-6.1 13.1-9.3 12.7-2.8 14.9z"/>
	<path class="s6" d="m151.7 43.5c0 0 7.1-17.4 35.2-25.8 28-8.5 1.4-6.1 1.4-6.1l-30.5 11.7-11.7 11.7-5.2 9.4zm-14.1 40.7c0 0-9.8-32.8 27.7-37.5l-1.4-5.6-25.8 6-7.5 24.4 1.9 16z"/>
	<path fill-rule="evenodd" class="s7" d="m152.6 127.8l6.2-6c0 0 2.8 0.3 3.3 3.6 0.5 3.3 1.8 32.9 22 48.7 1.9 1.5-15-2.3-15-2.3l-15-23.5m84.8-30q0 0.6 0 0.6-0.1-0.3 0-0.6zm4.9-12.5c3.9 1.1 3.9 4.9 3.9 4.9 0 0-8 5.1-8.8 7.6 0.3-2.6 1.5-13.5 4.9-12.5zm35.3-29.6c-1.3 0.5-10.5 6-9.8-0.9 0.7-6.8 8.5-8.4 8.5-8.4zm-53.4 2.4c-3.3 2.7-15 3.2-15-3.3 0-6.6 10.3-8 10.3-8zm-68.4 19.3c0 0-17.7-10.8-19.6-0.5-1.9 10.3-6.1 17.8 2.8 28.6l-6.1-1.9-5.6-14.5-1.9-14.1 10.8-11.2 12.2 0.9 7 5.7c0 0 0.4 7 0.4 7zm8.5-29.6q0 0 0 0 0 0 0 0zm0 0c0-0.5 0.2-3.3-0.5-21.6-0.5-12.6 20.1-32.3 48.2-43.1 28.1-10.7 57.7 24.4 57.7 24.4-6.6-7.5-24.1-15.4-57.2-8.9-39.3 7.7-47.8 47.2-48.2 49.2zm0 0q0 0 0 0c0 0 0 0 0 0zm112.8-25.8c-6.6-6.5-17.4 5.7-17.4 5.7-0.9-1.9-0.9-3.8-0.9-3.8 0.5-12.2 14.1-11.7 14.1-11.7z"/>
	<path class="s7" d="m215 49.4c0 0-2.3-18.6-18.2-7.8-10.3 7-9.3 16.8-7.6 18.7 1.9 1.9 1.4 5.7 2.8 3.1 1.4-2.6 1-11 6.2-13.4 5-2.4 13.6-5 16.8-0.6z"/>
	<path fill-rule="evenodd" class="s8" d="m171 176l-44.1 19.7c0 0 18.3 72.6 9 95.1l-6.6-2.4-0.5-27.6-12.2-52.4-5.1-14.5 45.9-31c0 0 13.6 13.1 13.6 13.1zm4.5 40.2l6.2 7.7v28h-7.4c0 0-0.9-19.6-0.9-22 0-2.4 0.9-10.8 0.9-10.8zm0.1 47.5l-15-2.4-6.1-4.2 21.2-0.9z"/>
	<path class="s4" d="m247.8 251.5l17.4-0.5 4.2 43.1-17.7 2.4c0 0-3.9-45-3.9-45z"/>
	<path class="s4" d="m252.5 251.5l26.1-1.4c0 0 10.9-27.1 10.9-28.5 0-1.4 9.3-39.4 9.3-39.4l-21.1-22.1-4.3-3.7-11.2 11.2v43.6z"/>
	<path class="s8" d="m264.2 248.3l-16.4 3.2 2.4 13.1c6 2.8 16.3-4.6 16.3-4.6m-1.8-93.8l32.8 24.4 0.9-11.2-24.8-22.9c0 0-8.9 9.7-8.9 9.7z"/>
	<path class="s9" d="m191.9 343.8l-9.7-39.4-4.9-29.1-0.8-21.5 44-2.4h27.3l-2.5 49.3 4.3 38-0.5 7-35.6 2.8z"/>
	<path class="s6" d="m241.7 251c0 0-2.3 48.8 4.7 83.5 0 0-14.1 8.9-34.6 11.2l39.4-1.4 4.6-2.8-5.6-76.8-1.5-16.4"/>
	<path class="s9" d="m270.1 290.4l18.3-5.1 34.6-1.9 5.2-16-9.4-27.7-10.8-1.4-15 4.7-14.3 7-7.6-1.3-5.9 2.3"/>
	<path class="s6" d="m269.8 281c0 0 12.2-5.7 14.1-5.2l-5.2-25.8 6.1-2.3c0 0 4.3 24.4 4.3 27.2 0 0 26.2 1.3 28.5 1.3 0 0 5.7-10.8 4.3-22l5.2 15 0.5 8.4-7.6 11.2-8.4 1.9-14.1-0.5-4.7-6-16.3 2.4-5.2 1.8"/>
	<path class="s9" d="m251.4 247.8l-10.4-26.2-10.8-15.5c0 0 2.4-6.6 5.7-6.6h10.8l10.3 3.8-0.9 17.4z"/>
	<path class="s6" d="m253.4 238.8c0 0-13.1-25.3-13.1-29 0 0 2.4-5.7 5.7-4.3 3.3 1.4 10.3 5.2 10.3 5.2v-9l-16-3.3-10.8 1.4 18.3 43.3 3.8 0.5"/>
	<path class="s9" d="m196.1 177l-13-1.4-12.2-3.7v4.2l5.9 6.6 18.8 8.4"/>
	<path class="s6" d="m175.2 178.4c0 0 14.4 6.1 19.2 4.7l0.5 5.6-13.1-2.8-7.9-5.6z"/>
	<path class="s0" d="m270.1 201.1c-7.9-0.2-15.2-1.2-21.4-2.9 0.4-2.6-0.4-5.1 0.3-7 1.8-1.3 4.6-1.3 7.3-1.6-2.3-1.1-5.5-1.6-8.1-0.9-0.1-1.8-0.9-2.9-1.4-4.2 4.5-1.6 15-12 20.9-8.7 2.9 1.7 4.1 11 4.3 15.7 0.2 3.8-0.4 7.5-1.9 9.6z"/>
	<path class="s10" d="m270.1 201.1c-7.9-0.2-15.2-1.2-21.4-2.9 0.4-2.6-0.4-5.1 0.3-7 1.8-1.3 4.6-1.3 7.3-1.6-2.3-1.1-5.5-1.6-8.1-0.9-0.1-1.8-0.9-2.9-1.4-4.2 4.5-1.6 15-12 20.9-8.7 2.9 1.7 4.1 11 4.3 15.7 0.2 3.8-0.4 7.5-1.9 9.6z"/>
	<path class="s0" d="m232.1 188.1c0 0.6 0 1.2-0.1 1.8-2.5 1.6-6.4 1.6-9.2 3 4 0.2 7.1 1.2 9.9 2.5-0.1 1.5-0.1 3-0.2 4.5-4.6 3.1-8.7 7.8-14.1 10.8-2.6 1.3-11.4 4.9-14.1 4.2-1.5-0.4-1.7-2.3-2.3-4-1.2-3.8-4.2-10-4.5-15.7-0.3-7.3-1.1-19.5 6.7-18 6.4 1.2 13.7 4.1 18.6 6.8 3.1 1.7 4.7 3.7 9.3 4.1z"/>
	<path class="s10" d="m232.1 188.1c0 0.6 0 1.2-0.1 1.8-2.5 1.6-6.4 1.6-9.2 3 4 0.2 7.1 1.2 9.9 2.5-0.1 1.5-0.1 3-0.2 4.5-4.6 3.1-8.7 7.8-14.1 10.8-2.6 1.3-11.4 4.9-14.1 4.2-1.5-0.4-1.7-2.3-2.3-4-1.2-3.8-4.2-10-4.5-15.7-0.3-7.3-1.1-19.5 6.7-18 6.4 1.2 13.7 4.1 18.6 6.8 3.1 1.7 4.7 3.7 9.3 4.1z"/>
	<path class="s0" d="m236.6 196.8c-0.7-4-1.5-5.1-1.2-8.6 10.6-7 12.5 12.1 1.2 8.6z"/>
	<path class="s10" d="m236.6 196.8c-0.7-4-1.5-5.1-1.2-8.6 10.6-7 12.5 12.1 1.2 8.6z"/>
	<path class="s1" d="m251.9 199.9c0 0-3.3-4.6-0.9-6 2.3-1.4 4.6 0 6-2.4 1.4-2.4 0-3.8 0.5-6.5 0.5-2.8 2.8-3.3 5.2-3.8 2.4-0.5 8.9-1.4 9.8 0.9l-2.8-8.5-5.6-1.8-17.8 10.3-0.9 5.1v10.4m-42.8 17.8c-0.6-7.3-1.1-14.6-1.7-21.9-1-10.9 2.5-9 12.1-9 1.4 0 8.9 1.6 9.4 2.7 2.6 5.3-4.3 4.1 3 8.1 6 3.2 16.8-2 14.4-9.5-1.4-1.6-7.2-0.4-9.3-1.5l-11-5.7c-4.7-2.4-15.4-5.9-20.3-2.6-12.6 8.6 0.8 30 5.2 38.9"/>
	<path fill-rule="evenodd" class="s2" d="m215 49.4c-12.8-3-19.1 5.4-23 14-3.4-0.8-2.1-5.6-1.2-7.9 2.3-6.3 11.5-14.7 19.1-13.5 3.2 0.4 7.5 3.3 5.1 7.4zm62.3 14.5h0.6c2.8 6 5.3 12.3 9 17.7-2.5 5.7-18.5 10.7-18.3 0.6 3.5-1.5 9.5-0.3 12.5-2.3-1.8-4.9-4.2-9.1-3.8-16zm-55.8 0.2c2.8 5.1 3.7 10.3 7.5 14.1 1.8 1.7 5.2 3.8 3.5 8.5-0.4 1.1-3.3 3.6-5 4.1-6 1.8-20.2 0.4-15.4-7.3 5 0.2 11.8 3.3 15.5-0.4-2.8-4.5-8-13.6-6.1-19zm53.5 51c-9.2 5.9-19.4 12.3-34.5 10.8-3.1-2.8-4.4-9-1.2-13.1 1.5 2.8 0.6 8 5.1 8.7 8.5 1.5 18.5-5.2 24.6-7.5 3.8-6.4-0.3-8.7-3.7-12.9-7.1-8.4-16.4-18.9-16.1-31.5 2.9-2.1 3.1 3.1 3.5 4 3.6 8.6 12.9 19.6 19.5 26.9 1.7 1.8 4.4 3.6 4.7 4.8 0.9 3.4-2.3 7.5-1.9 9.8zm-120.9-6.2c-2.9-1.6-3.6-8.8-6.9-9-4.9-0.3-4 9.3-4 15-3.3-3-3.9-12.3-1.5-17.1-2.8-1.4-4 1.5-5.5 2.5 2-14.4 21.1-6.6 17.9 8.6zm126.6 12.3c-4.2 8.1-10.3 17-22.8 17.3-0.3-2.6-0.5-6.6 0-8.2 9.6-1 15.6-5.9 22.8-9.1zm-59.9 5.2c7.9 4.2 22.6 4.7 33.5 4.4 0.6 2.4 0.6 5.3 0.6 8.2-14 0.6-30.4-2.9-34.1-12.6zm-1.5 7.8c5.6 13.8 24.5 12.3 40.5 11.9-0.7 1.7-2.2 3.9-4.2 4.6-5.1 2.1-19.2 3.7-26.4-0.1-4.4-2.4-7.4-7.8-9.9-11-1.1-1.5-7-5.3 0-5.4z"/>
	<path class="s11" d="m274.3 210.7c-6.5 11.1-12.7 22.5-20.4 32.2 3.2-9.4 4.6-25.3 5.1-37.4 6.7-3.2 12.5 0.7 15.3 5.2z"/>
	<path class="s2" d="m309.1 250.5c-7.2 1.5-12.3 8.6-19.4 8.1 3.9-5.5 10.7-7.9 19.4-8.1zm3.2 11.4c-6 0.5-12.9 1.5-18.9 1 2.9-4.3 13.8-2.7 18.9-1zm2.1 9.8c-6.7 0.1-14.9 0-21.3-0.5 3.8-4.1 17-1.5 21.3 0.5z"/>
	<path class="s6" d="m261.8 298.5c1 8.3 4.2 16.7 3.8 25.9-3.6 1.2-5.7 2.2-10.7 2.2-0.3-7.7-1.4-19.6-1.1-27 2.4 0.2 6-1.7 8-1.1z"/>
	<path class="s3" d="m251.1 175.4c-3.4 2.2-6.2 4.9-9.5 7.3-7.1 0.4-11-0.5-16.1-4.6 0.1-0.3 0.6-0.2 0.6-0.6 7.6 3.4 17.3-1.4 25-2.1z"/>
	<path class="s11" d="m211.2 227.3c2.1-9 10.3-13.8 17.7-18.7 7.7 9.7 12.3 22.2 17.5 34.3-12.2-3.7-24.6-9.5-35.2-15.6z"/>
	<path fill-rule="evenodd" class="s2" d="m284 242.6c11.4-5.7 32.7-15.2 39.7 0 2.7 5.7 5.8 15.1 7 20.9 1.9 8.2-2 25.4-10.5 28.1-7.4 2.4-16.1 2.3-25 0.5-1.1-0.9-2.2-2.4-3.1-4-6.3-0.2-12.4 0.3-17.3 3 0.5 4.8-2.7 5.5-5.8 6.5-2.2 8.8 4.5 20.3 2.9 28.3-1.1 5.7-8.1 6.6-13.3 7.6-0.2 3.2 0.2 5.8 0.6 8.5-1.2 4.4-6.4 6.9-11.5 7.5-16.6 2-41.7 2.8-57.6-2.9-4.4-10.9-7.9-24.1-11.6-36.5-15.4 1.7-28-6.7-39.9-12.2-4-1.9-9.7-3-11.3-6.3-1.5-3.2-0.9-9.2-1.3-14.9-0.9-14.5-1.7-28.6-5.5-43.5-1.7-6.8-4.8-12.6-6.9-19.1-1.9-5.9-5.3-13.4-6.2-19.3-1.3-8.9 7-9.3 12.3-13.2 8.2-6 14.7-9.2 23.6-14.6 2.7-1.6 10.6-5.6 11.5-7.4 1.8-3.7-3.1-8.9-4.3-11.8-2.1-4.5-3.2-8.4-3.5-12.9-7.5-1.1-13.2-5.6-16.6-10.6-5.6-8.3-9.6-23.7-4.7-35.3 0.4-0.9 2.3-2.8 2.6-4.2 0.6-2.7-1.1-6.4-1.2-9.4-0.5-15.2 2.6-28.3 12.8-32.8 4.2-16.6 19.1-22.1 33.1-30.3 5.2-3.1 11-5.1 16.9-7.2 21.4-7.9 54.2-6.4 72 7 7.5 5.7 19.5 17.7 23.8 26.4 11.4 22.9 10.5 61.3 2.6 89.3-1.1 3.8-2.6 9.2-4.8 13.8-1.5 3.2-6.1 9.4-5.6 12.2 0.6 2.9 10.7 10.5 12.9 12.6 3.8 3.8 11.3 8.7 11.9 13.5 0.7 5.1-2.2 12-3.7 16.9-4.8 16.2-9.5 31.2-15 45.8zm-106.8 15c3.3 29.9 8 54.9 16.6 81.4 19.2 5.8 42.2 6.3 59.1 1-3-14.8-1.7-33-3.5-49-1.4-12-0.7-24-2.6-36.2-20.5-4.3-49.5-1-69.6 2.8zm74.5-2.6c-0.2 12.8 0.6 25.5 1.5 38.3 5-0.7 8.3-1.2 12.8-2.3-1.4-12.3-1.2-26.3-4.3-37.2-3.5 0.1-6.6 0-10 1.2zm24.9-2.1c-2.4-0.5-5.1 0-7.3 0 1.1 10.4 3.6 22 4.5 33 3.5 0.1 5.3-1.6 8.2-2.1 0.2-9.6-0.8-22.9-5.4-30.9zm37.8 34.6c7.3-1.8 11.9-10.8 9.8-20-1.4-6.1-3.8-17.9-6.5-21.8-1.8-2.9-7.1-6.8-11.4-4.1-6.8 4.4-18.8 5.7-23.8 10.9 2.5 8.4 3.3 19.7 4.3 30.2 8.5 0.5 18.9-2.4 26.1 0.7-5 1.6-11.3 1.6-15.6 4 3.6 1.6 11.7 1.3 17.1 0.1zm-68.1-44.6c-5.2-12.1-9.8-24.6-17.5-34.3-7.4 4.9-15.5 9.7-17.7 18.7 10.7 6.1 23.1 11.9 35.2 15.6zm12.7-37.4c-0.5 12.1-1.9 28-5.1 37.4 7.7-9.8 13.9-21.1 20.4-32.2-2.8-4.5-8.6-8.4-15.3-5.2zm-14.4-5.1c-2.9-0.3-5.3 3.4-9.1 1.8-0.9 1-1.7 2-2.6 3 8.3 10.1 12.2 24.4 18.7 36.2 3.4-11.4 3-23.8 3.8-36.2-4.7 0.2-7.4-4.5-10.8-4.8zm-9.2-12.2c-0.3 3.5 0.5 4.6 1.2 8.6 11.3 3.5 9.4-15.6-1.2-8.6zm-66.1-8.6c-1.3-0.9-9.9-12.1-11.1-11.6-15.6 6.1-30.2 16.8-43.2 26.9 12.4 26.7 17.5 59.3 18.4 90.8 14.2 6.6 26.7 16.2 46 17.2-2.3-15.7-4.2-29.9-5.5-44.8-4.9-2.1-11.8 0.1-16.4-0.6 0-5.5 6.9-2.4 7.5-6.1 0.4-2.7-3.8-2.9-2.4-7.3 3.5 1.3 5.4 4.2 9.2 5.3 3.5-7.6 0-21 0.5-27.3 0.1-1.2 0.6-6.6 3.3-5.7 2.3 0.8-0.1 14.4 0.1 20.3 0.2 5.6-0.7 10.9 1.5 14.3 18.7-2.5 37.6-4.1 57.9-4.7-4.5-1.9-9.7-3.7-15.5-7-3.2-1.8-13-5.4-13.9-8.4-1.5-4.8 3.8-7.2 4.7-11.3-9.4 5.1-11.2-5-13.5-12-2-6.5-3.2-11.3-3.7-15-8.2-4.2-17-8-23.9-13zm6.8-4c-4 4.2 11.5 9.8 16.3 10.1 0-2.6 1.5-5.1 1.2-7-5.8-1-13.5-0.3-17.5-3.1zm50.1 1.9c0 0.4-0.5 0.3-0.6 0.6 5.2 4.1 9.1 5 16.1 4.6 3.2-2.3 6.1-5.1 9.5-7.3-7.8 0.7-17.5 5.5-25 2.1zm45.8 13.9c-0.2-4.6-1.4-14-4.3-15.7-5.9-3.4-16.4 7.1-20.9 8.7 0.5 1.3 1.3 2.4 1.4 4.2 2.7-0.7 5.8-0.2 8.1 0.9-2.7 0.3-5.5 0.3-7.3 1.6-0.6 1.9 0.2 4.4-0.3 7 6.2 1.7 13.5 2.6 21.4 2.9 1.5-2 2.1-5.7 1.9-9.6zm-49.2-7.3c-4.9-2.7-12.2-5.6-18.6-6.8-7.8-1.5-7 10.7-6.7 18 0.3 5.7 3.3 11.8 4.5 15.7 0.6 1.7 0.8 3.6 2.3 4 2.7 0.6 11.6-2.9 14.1-4.2 5.4-2.9 9.5-7.6 14.1-10.8 0.1-1.5 0.1-3 0.2-4.5-2.8-1.4-5.8-2.3-9.9-2.5 2.7-1.4 6.7-1.4 9.2-3 0-0.6 0-1.2 0.1-1.8-4.6-0.5-6.2-2.5-9.3-4.1zm41-14.8c13-6.3 15.3 23.5 10.2 33.1 0.8 2.9 3.5 4 4.5 6.6-7.2 13-15.2 25.1-22.7 37.9 5.5-3.5 13.4-0.6 19.9-3.2 2.4-0.9 4-6.4 5.8-10.7 5-11.9 10.1-27 12.4-38.3 0.5-2.6 2-8.3 1.6-10.5-0.6-4.2-6.1-7.3-9-9.8-5.3-4.7-8.5-8.8-14.1-13.3-2.1 3.3-6.9 5.5-8.6 8.2zm-7-151c-14.6-8.3-39.2-14.4-54.7-6.7-12.5 6.3-29.3 16.6-35.1 29.6 5.4 12.6-1.6 24.1-2.1 36.9-0.2 6.8 3.2 12.7 3.5 20.1-1.9 3.1-7.4 3.4-11.3 3.2-1.3-6.5-3.6-13.9-10.3-14.7-9.5-1.1-16.6 6.9-17 15.1-0.5 9.7 7.5 25.8 18.8 24.7 4.3-0.4 5.4-4.8 10.2-4.8 2.6 5.2-4 6.8-4.7 10.5-0.2 1 0.5 4.6 1 6.4 2.1 8.5 6.7 19.5 11.1 25.9 5.8 8.3 17 9.4 29.1 10.2 2.2-4.6 10.1-4.2 15.3-3-6.3-2.5-12-8.5-16.8-13.7-5.4-6.1-11-12.5-11.3-20.5 10.4 14.4 19 27 37.8 33.4 14.3 4.7 31-2.2 42-10 4.5-3.1 7.2-8.3 10.5-12.9 12.1-17.4 17.8-42.2 16.6-66.3-0.5-10-0.5-19.9-3.9-26.5-3.5-7-15.3-13.3-22.2-7-1.3-6.8 5.7-11 14-8.5-5.9-7.7-12-16.7-20.5-21.4zm-72.9-3.8c-14 4-32 14.2-37.7 26.8 4.4-0.7 7.5-2.9 11.9-3.2 1.7-0.1 3.9 0.7 5.7 0.2 3.8-1 7.1-9.5 10-12.7 2.7-3.1 6.1-4.5 8.4-7.2 1.5-0.7 3.7-0.7 3.8-2.9-0.6-0.7-1.3-1.2-2.1-1zm-44.3 39.6c-6.1 6.8-4.8 19.5-4.1 28.7 11.2-7.1 26 0.5 25.9 12.5 5.3-0.1 1.9-6.7 1-11-3.2-13.8 5.3-28.6 0.4-41.2-9.7 0.8-17.5 4.6-23.2 11zm114.2 245.6c-0.3 7.4 0.7 19.2 1.1 27 5 0 7.1-1 10.8-2.2 0.3-9.2-2.9-17.6-3.9-25.9-2-0.7-5.6 1.2-8 1.1z"/>
	<path class="s7" d="m208.1 129.9c0.6-0.8 4-2.1 8.7 0.2 0 0-5.6 0.9-5.1 10.3l-2.4-0.5c0.1 0.1-2.4-8.4-1.2-10z"/>
	<path class="s12" d="m249.2 210.5c0 1.3-1.2 2.5-2.6 2.5-1.4 0-2.6-1.2-2.6-2.5 0-1.4 1.2-2.6 2.6-2.6 1.5 0 2.6 1.2 2.6 2.6zm2.6 12c0 1.4-1.2 2.5-2.6 2.5-1.4 0-2.6-1.1-2.6-2.5 0-1.4 1.2-2.6 2.6-2.6 1.5 0 2.6 1.1 2.6 2.6z"/>
	<g>
		<path fill-rule="evenodd" class="s2" d="m116.6 374.3q-1.2 0.1-2.1 0.3c-0.6 0.1-1.2 0.2-2 0.4-0.8 0.2-1.3 0.6-1.5 1.2-0.2 0.6-0.4 1.2-0.4 1.9v24.3q0 0.8-0.1 1.5-0.1 0.8-0.3 1.6-0.2 0.8-0.4 1.5-0.3 0.8-0.6 1.5c-0.9 1.9-2.1 3.4-3.7 4.7-1.6 1.2-3.4 2.2-5.4 2.8-1.9 0.5-4 0.9-6.2 0.9-3.9 0-7-0.8-9.3-2.7-2.4-1.9-3.6-4.4-3.6-7.7 0-1.9 0.5-3.4 1.6-4.7 1.1-1.3 2.6-1.9 4.4-1.9 1.8 0 3.2 0.5 4.3 1.6 1.1 1.1 1.6 2.3 1.6 3.8 0 1.3-0.5 2.6-1.4 3.7-0.9 1.1-2 2.2-3.2 3.1v0.4c0.2 0.4 0.6 0.8 1.2 1.1 0.6 0.3 1.3 0.4 1.9 0.4 2.5 0 4.5-0.9 5.9-2.7q2-2.7 2-8v-24.9c0-0.7-0.1-1.3-0.2-1.8-0.2-0.5-0.8-0.9-1.7-1.3-0.6-0.3-1.4-0.5-2.3-0.7-0.9-0.2-1.6-0.3-2.2-0.4v-2.4h23.4v2.5zm36.7 34.1c-0.7 1.2-1.6 2.3-2.6 3.4-0.9 1.1-2.1 1.9-3.4 2.7q-2.1 1.2-4.2 1.7c-1.4 0.4-3.1 0.6-4.9 0.6-3 0-5.6-0.4-7.9-1.2-2.2-0.9-4.1-2-5.4-3.5-1.5-1.5-2.5-3.2-3.3-5.2q-0.3-0.8-0.5-1.6-0.2-0.7-0.3-1.6-0.2-0.8-0.2-1.6-0.1-0.8-0.1-1.6c0-2.1 0.4-4.2 1.2-6.1 0.8-1.9 1.9-3.7 3.3-5.1q2-2.3 5.3-3.6 0.9-0.4 1.7-0.6 0.9-0.3 1.8-0.5 0.9-0.1 1.8-0.2 0.9-0.1 1.9-0.1c2.8 0 5.2 0.4 7.1 1.1 1.9 0.7 3.4 1.7 4.6 2.9 1.2 1.2 1.9 2.5 2.5 4.1 0.5 1.6 0.8 3.3 0.8 5.1v2h-20.9c0 4.2 0.8 7.4 2.5 9.6 1.6 2.2 4.2 3.3 7.7 3.3 2 0 3.7-0.5 5.3-1.6q0.6-0.4 1.1-0.9 0.6-0.4 1.1-0.9 0.5-0.6 0.9-1.1 0.5-0.6 0.8-1.2c0 0 2.3 1.7 2.3 1.7zm-11.8-11.8c0-1.2-0.1-2.5-0.2-3.8-0.1-1.3-0.3-2.4-0.7-3.1-0.4-1-0.8-1.7-1.5-2.2-0.6-0.5-1.3-0.7-2.2-0.7-1.6 0-2.9 0.8-3.8 2.4-1 1.5-1.5 4.1-1.6 7.6zm36.9 19.2v-2.3c0.4 0 0.9-0.1 1.4-0.2 0.6-0.1 1-0.2 1.3-0.3 0.4-0.2 0.7-0.6 0.9-1 0.2-0.4 0.3-1.1 0.3-1.9v-14.5q0-3.1-1.2-4.8c-0.8-1-1.9-1.5-3.5-1.5-0.8 0-1.6 0.1-2.3 0.4-0.7 0.2-1.4 0.6-2 1-0.6 0.4-1.1 0.8-1.5 1.3q-0.6 0.6-0.9 1.2v16.6q0 1 0.3 1.8c0.2 0.5 0.6 0.9 1 1.1 0.3 0.2 0.7 0.4 1.2 0.5l1.4 0.3v2.3h-18.8v-2.3c0.5 0 1-0.1 1.6-0.2 0.5-0.1 1-0.2 1.4-0.3 0.7-0.2 1.1-0.6 1.4-1.1 0.2-0.5 0.3-1.1 0.3-1.9v-18.1c0-0.6-0.1-1.3-0.4-1.8-0.3-0.6-0.8-1.1-1.3-1.5-0.4-0.2-0.8-0.5-1.4-0.6q-0.3-0.1-0.5-0.2-0.2 0-0.5-0.1-0.2 0-0.4 0-0.3 0-0.5 0v-2.3l14.8-0.8 0.5 0.5v4.5h0.1q0.2-0.3 0.5-0.5 0.3-0.2 0.5-0.5 0.3-0.2 0.5-0.4 0.3-0.3 0.6-0.5 0.2-0.3 0.5-0.5 0.3-0.2 0.6-0.5 0.3-0.2 0.5-0.4 0.3-0.2 0.6-0.4c0.8-0.5 1.8-0.9 3-1.3 1.2-0.4 2.6-0.5 4-0.5 3.4 0 5.8 1 7.5 2.9 1.7 1.9 2.5 4.4 2.5 7.6v15.2q0 1.2 0.3 1.8c0.2 0.5 0.7 0.8 1.3 1.1 0.3 0.1 0.7 0.3 1.2 0.4 0.5 0.1 1 0.2 1.7 0.3v2.3zm61.3 0h-14.6q-0.6-1-1.2-2-0.6-1-1.2-2-0.6-1-1.3-2-0.6-1-1.3-2c-1.4-2.2-2.8-4.3-4.1-6l-1.8 1.5v6.8c0 0.7 0.1 1.4 0.3 1.8 0.2 0.5 0.6 0.8 1.3 1.1 0.4 0.2 0.8 0.3 1.3 0.4 0.5 0.1 1 0.2 1.5 0.2v2.2h-19.3v-2.2c0.5 0 1-0.1 1.6-0.2 0.5-0.1 1-0.2 1.4-0.3 0.7-0.2 1.1-0.6 1.4-1.1 0.2-0.5 0.4-1.1 0.4-1.9v-34.5c0-0.7-0.2-1.4-0.5-2.1-0.3-0.7-0.7-1.3-1.3-1.7-0.4-0.2-1-0.5-1.8-0.6-0.8-0.2-1.5-0.3-2.2-0.3v-2.3l15.4-0.8 0.5 0.5v32c1.5-1.4 3.3-3 5.1-4.8 1.9-1.8 3.5-3.3 4.6-4.5 0.7-0.7 1.1-1.1 1.1-1.5 0.1-0.4 0.1-0.6 0.1-0.7 0-0.4-0.3-0.7-1-0.9-0.7-0.2-1.6-0.5-3-0.7v-2.2h15.7v2.2c-2.1 0.6-3.7 1.1-4.8 1.6-1 0.5-2.2 1.2-3.5 1.9q-0.3 0.3-0.7 0.5-0.3 0.2-0.6 0.4-0.3 0.2-0.6 0.5-0.3 0.2-0.6 0.4c-0.8 0.6-1.7 1.4-2.8 2.3 2 3 3.9 5.7 5.6 8.2 1.7 2.4 3.4 5.1 5.3 7.9 0.6 1 1.4 1.6 2.4 2 1 0.3 1.9 0.5 2.9 0.6v2.3c0 0 0.3 0 0.3 0zm19.8 0h-19.5v-2.2c0.5 0 1.1-0.1 1.6-0.2 0.5-0.1 1-0.2 1.3-0.3 0.7-0.2 1.1-0.6 1.4-1.1 0.3-0.5 0.3-1.1 0.3-1.9v-18.1c0-0.7-0.1-1.4-0.4-1.8q-0.1-0.2-0.3-0.4-0.1-0.2-0.2-0.4-0.2-0.1-0.4-0.3-0.1-0.1-0.3-0.2c-0.4-0.2-0.9-0.5-1.7-0.7-0.8-0.2-1.5-0.4-2.1-0.4v-2.3l15.2-0.8 0.5 0.5v24.6c0 0.7 0.2 1.3 0.5 1.9 0.3 0.5 0.8 0.9 1.3 1.1 0.4 0.2 0.8 0.4 1.3 0.5 0.5 0.1 1 0.2 1.6 0.3v2.3c0 0-0.1 0-0.1-0.1zm-4.4-42.1c0 1.6-0.6 2.9-1.8 3.9-1.2 1.1-2.7 1.7-4.3 1.7-1.7 0-3.1-0.6-4.3-1.7-1.2-1-1.8-2.4-1.8-3.9 0-1.6 0.6-2.9 1.8-4.1 1.1-1.1 2.6-1.7 4.3-1.7 1.7 0 3.1 0.6 4.3 1.7 1.2 1.1 1.8 2.5 1.8 4.1zm29.5 42.1v-2.2c0.4 0 0.9-0.1 1.4-0.2 0.6-0.1 1-0.2 1.3-0.3 0.4-0.2 0.7-0.6 0.9-1 0.2-0.4 0.3-1.1 0.3-1.9v-14.5q0-3.1-1.2-4.8c-0.8-1-1.9-1.5-3.5-1.5-0.8 0-1.5 0.1-2.2 0.4-0.7 0.3-1.4 0.5-2.1 1-0.6 0.4-1.1 0.8-1.5 1.3q-0.6 0.6-0.9 1.2v16.6q0 1 0.3 1.8c0.2 0.5 0.6 0.9 1 1.1 0.3 0.2 0.7 0.4 1.2 0.5l1.5 0.3v2.3h-18.9v-2.3c0.5 0 1-0.1 1.6-0.2 0.5-0.1 1-0.2 1.4-0.3 0.7-0.2 1.1-0.6 1.4-1.1 0.2-0.5 0.4-1.1 0.4-1.9v-18.1c0-0.6-0.2-1.3-0.5-1.8-0.3-0.6-0.8-1.1-1.3-1.5-0.4-0.2-0.8-0.5-1.4-0.6q-0.2-0.1-0.5-0.2-0.2 0-0.4-0.1-0.3 0-0.5 0-0.2 0-0.5 0v-2.3l14.8-0.8 0.5 0.5v4.5h0.1q0.3-0.3 0.5-0.5 0.3-0.2 0.6-0.5 0.2-0.2 0.5-0.4 0.2-0.3 0.5-0.5 0.3-0.3 0.5-0.5 0.3-0.2 0.6-0.5 0.3-0.2 0.6-0.4 0.3-0.2 0.6-0.4c0.8-0.5 1.7-0.9 2.9-1.3 1.2-0.4 2.6-0.5 4-0.5 3.4 0 5.9 1 7.5 2.9 1.7 1.9 2.5 4.4 2.5 7.6v15.2q0 1.2 0.3 1.8c0.2 0.5 0.7 0.8 1.3 1.1 0.3 0.1 0.7 0.3 1.2 0.4 0.5 0.1 1 0.2 1.7 0.3v2.3zm35.8 1.1c-2 0-4-0.3-5.8-0.9-1.9-0.5-3.4-1.1-4.5-1.8l-0.9 2h-2.4l-0.4-11.5h2.3c0.3 0.9 0.8 2 1.6 3.2 0.7 1.2 1.6 2.2 2.5 3.2q0.4 0.3 0.8 0.7 0.4 0.3 0.8 0.6 0.4 0.3 0.9 0.6 0.4 0.2 0.8 0.5c1.3 0.6 2.6 1 4 1 1.9 0 3.3-0.4 4.2-1.1 0.9-0.7 1.4-1.9 1.4-3.4q0-1.2-0.6-2.1c-0.4-0.5-1-1-1.7-1.4-0.8-0.4-1.7-0.8-2.7-1.1-1-0.3-2.2-0.6-3.6-1.1-1.4-0.4-2.5-0.8-3.5-1.3-1-0.3-2.1-1-3.1-1.9-0.9-0.8-1.7-1.8-2.2-2.9-0.6-1.1-0.8-2.5-0.8-4.1 0-2.9 1.2-5.2 3.7-7 2.5-1.8 5.6-2.7 9.6-2.7 1.9 0 3.6 0.2 5.2 0.6 1.6 0.4 2.8 0.8 3.9 1.3l0.7-1.8h2.4l0.5 10.5h-2.2c-0.7-2.2-2-4-3.6-5.5q-2.7-2.4-5.7-2.4c-1.6 0-2.9 0.3-3.8 1-0.9 0.7-1.4 1.6-1.4 2.7 0 1.6 0.7 2.7 2 3.4 1.3 0.7 3.2 1.4 5.6 2 3.7 1 6.3 2.3 8.1 3.9 1.7 1.7 2.6 3.7 2.6 6.2 0 3.4-1.3 6.1-4 7.9-2.9 1.7-6.4 2.7-10.7 2.7z"/>
	</g>
</svg>