<svg width="188" height="48" viewBox="0 0 188 48" fill="none" xmlns="http://www.w3.org/2000/svg">
<path d="M107.939 29.3458H103.091C97.8609 29.3458 96.605 30.0302 96.605 35.129V37.6281C96.605 41.8728 97.4904 42.8273 102.828 42.8273H107.864C113.641 42.8273 114.752 42.2873 114.752 40.0581V38.2811H105.421V33.6596H121.088V38.4193C121.088 46.149 118.683 47.9637 108.642 47.9637H102.231C93.0887 47.9637 90.4577 45.948 90.4577 38.4507V34.7585C90.4577 26.4385 92.6742 24.1089 102.382 24.1089H108.008C118.457 24.1089 121.088 25.9236 121.088 31.5373H114.714C114.677 29.6912 113.754 29.3458 107.939 29.3458Z" fill="white"/>
<path d="M135.985 48C126.541 48 123.985 45.9153 123.985 38.0412V35.0271C123.985 25.7528 126.648 24.2081 136.205 24.2081H141.686C151.764 24.2081 154.282 25.6146 154.282 32.2894H147.909C147.878 30.4433 147.243 29.4826 141.391 29.4826H136.65C131.093 29.4826 130.202 29.9284 130.202 34.9581V37.5577C130.202 42.1792 131.093 42.8259 136.424 42.8259H141.467C146.911 42.8259 147.984 42.3864 147.947 39.7177H154.314C154.352 46.0472 152.612 48 141.611 48" fill="white"/>
<path d="M174.747 47.9675H169.296C159.45 47.9675 157.115 46.1214 157.115 37.9019V35.026C157.115 26.1975 159.3 24.1128 169.415 24.1128H174.853C185.453 24.1128 187.782 26.2979 187.782 34.9256V37.8015C187.782 46.561 185.409 47.9675 174.747 47.9675ZM174.527 29.4815H169.968C164.154 29.4815 163.337 30.4108 163.337 35.1328V37.5942C163.337 41.839 164.154 42.7306 169.748 42.7306H174.634C180.674 42.7306 181.597 42.0462 181.597 37.4938V35.026C181.597 30.235 180.706 29.4815 174.527 29.4815Z" fill="white"/>
<path d="M67.4895 37.4918L72.5631 28.6632H72.8582L77.7497 37.4918H67.4895ZM77.4923 24.2113H67.747L57.9137 41.8307L61.6498 47.9655H61.675L64.8208 42.2514H80.4184L83.5266 47.9655H90.7477" fill="white"/>
<path d="M43.9159 23.8233L29.4486 0L0.23143 47.9732" fill="white"/>
<path d="M10.8755 47.9752L44.507 24.7923L44.1302 24.1707L5.78307 47.9752" fill="white"/>
<path d="M21.5286 47.9752L45.5089 26.4438L44.9501 25.527L16.2039 47.9752" fill="white"/>
<path d="M31.9451 47.9752L46.9022 28.7357L46.1864 27.5677L26.6204 47.9752" fill="white"/>
<path d="M58.5309 47.9752C58.5309 47.9752 51.3035 36.277 47.963 30.4813L37.0372 47.9752" fill="white"/>
</svg>
