<svg width="170" height="50" viewBox="0 0 170 50" fill="none" xmlns="http://www.w3.org/2000/svg">
<path d="M166.143 16.2909C164.311 18.1793 164.283 21.8152 165.664 22.9426C167.27 24.2391 169.243 21.336 168.905 18.2357C168.708 16.6292 167.721 14.9944 166.143 16.2909Z" fill="white"/>
<path d="M167.524 23.7316C166.453 24.7745 165.945 26.7474 166.284 27.2548C166.65 27.8466 167.806 26.2119 168.172 24.7745C168.257 24.4363 168.285 24.2108 168.285 24.0699C168.313 23.9289 168.313 23.0552 167.524 23.7316Z" fill="white"/>
<path d="M166.312 28.4948C165.889 28.8894 165.354 29.7914 165.354 29.9041C165.354 30.0168 165.889 29.425 166.227 28.9458C166.396 28.6921 166.481 28.523 166.481 28.4667C166.481 28.3539 166.368 28.4667 166.312 28.4948Z" fill="white"/>
<path d="M166.988 9.5547C166.256 11.5558 167.919 15.9809 169.046 16.5446C170.061 17.0519 170.173 14.5434 169.243 11.894C168.567 10.0057 167.496 8.62459 166.988 9.5547Z" fill="white"/>
<path d="M161.38 3.9741C160.844 5.41153 164.17 9.27286 165.974 9.35741C167.439 9.41378 166.735 7.04625 164.734 5.15786C163.662 4.14321 161.943 3.12855 161.38 3.9741Z" fill="white"/>
<path d="M163.409 3.6077C163.493 3.35404 162.253 2.45212 161.351 1.91661C160.647 1.52202 159.858 1.15561 159.66 1.24017C159.66 1.24017 159.632 1.26835 159.688 1.38109C159.942 1.88842 163.014 3.77681 163.409 3.6077Z" fill="white"/>
<path d="M160.393 9.30104C162.592 9.10374 162.732 6.70803 160.619 5.04512C159.491 4.1432 157.265 3.26947 156.053 4.22776C156.024 4.28413 155.968 4.31231 155.912 4.36868C154.784 5.94704 157.575 9.5547 160.393 9.30104Z" fill="white"/>
<path d="M154.925 3.83317C155.574 3.52314 155.32 2.76214 154.023 2.25481C153.121 1.88841 151.769 1.74748 151.318 2.0857C151.289 2.11389 151.261 2.17026 151.261 2.19844C151.064 2.8467 153.657 4.42505 154.925 3.83317Z" fill="white"/>
<path d="M149.626 1.69112C149.711 1.60656 149.457 1.46564 148.922 1.38108C148.499 1.32471 147.879 1.32471 147.738 1.40927C147.71 1.49382 148.358 1.63475 148.781 1.69112C149.316 1.80386 149.57 1.74749 149.626 1.69112Z" fill="white"/>
<path d="M155.01 9.52649C152.445 11.4712 153.882 15.3608 156.673 16.009C159.604 16.6573 161.718 13.5569 160.083 10.9639C159.097 9.38556 156.842 8.42728 155.01 9.52649Z" fill="white"/>
<path d="M149.626 10.3438C148.02 11.3021 148.555 13.726 150.134 14.2333C151.768 14.7688 153.206 13.0778 152.473 11.4994C151.994 10.5411 150.754 9.83649 149.626 10.3438Z" fill="white"/>
<path d="M145.934 10.5693C145.23 10.9357 145.258 12.0068 145.821 12.4013C146.47 12.8241 147.231 12.1477 147.033 11.3021C146.921 10.7948 146.442 10.4002 145.934 10.5693Z" fill="white"/>
<path d="M159.35 16.2063C156.644 18.0665 157.095 22.0124 159.407 23.0552C162.169 24.2954 165.128 20.9132 164.001 17.7847C163.521 16.4036 161.859 14.8252 159.35 16.2063Z" fill="white"/>
<path d="M156.165 23.7881C154.474 24.69 154.446 26.6911 155.686 27.3957C157.377 28.354 159.66 26.5784 159.068 24.7464C158.843 23.9854 157.828 23.0553 156.165 23.7881Z" fill="white"/>
<path d="M153.488 28.7486C152.67 29.115 152.727 29.9042 153.347 30.2142C154.136 30.6088 155.179 29.9887 154.953 29.2559C154.812 28.8613 154.305 28.4386 153.488 28.7486Z" fill="white"/>
<path d="M157.377 0.112738L157.152 0.0281866C157.095 1.71985e-06 157.095 0 157.067 0C158.11 0.591883 159.04 0.732809 159.04 0.732809C158.448 0.479145 157.885 0.281847 157.377 0.112738Z" fill="white"/>
<path d="M10.5059 27.3676H15.1001L24.8238 49.9718H19.6096L17.524 44.9549H7.94109L5.85541 50H0.782135L10.5059 27.3676ZM15.7483 40.5863L12.7325 33.3146L9.71674 40.5863H15.7483Z" fill="white"/>
<path d="M28.347 27.5366H33.3357V45.4904H44.6378V50H28.347V27.5366Z" fill="white"/>
<path d="M50.4439 32.0744H43.5386V27.5366H62.3379V32.0744H55.4326V50H50.4439V32.0744Z" fill="white"/>
<path d="M71.0187 27.3676H75.641L85.3648 49.9718H80.1506L78.0649 44.9267H68.4821L66.3964 49.9718H61.2949L71.0187 27.3676ZM76.2893 40.5863L73.2735 33.3146L70.2577 40.5863H76.2893Z" fill="white"/>
<path d="M88.86 27.5366H98.1328C103.544 27.5366 106.814 30.7215 106.814 35.2875V35.3438C106.814 40.5298 102.727 43.2356 97.6255 43.2356H93.8205V49.9718H88.8318V27.5366H88.86ZM97.8228 38.8669C100.331 38.8669 101.769 37.4013 101.769 35.4566V35.4002C101.769 33.1736 100.218 31.9898 97.71 31.9898H93.8487V38.8669H97.8228Z" fill="white"/>
<path d="M116.03 27.3676H120.624L130.348 49.9718H125.134L123.048 44.9267H113.465L111.379 49.9718H106.278L116.03 27.3676ZM121.272 40.5863L118.257 33.3146L115.241 40.5863H121.272Z" fill="white"/>
<path d="M135.28 41.1217L126.543 27.5366H132.405L137.817 36.5558L143.313 27.5366H148.978L140.269 41.0372V50H135.28V41.1217Z" fill="white"/>
</svg>
