<svg width="313" height="44" viewBox="0 0 313 44" fill="none" xmlns="http://www.w3.org/2000/svg">
<path d="M121.381 22.2444V34.9556L109.422 22.2444H100.392V43.0222H106.249V30.5556L118.452 43.0222H127.239V22.2444H121.381ZM44.5015 26.4H49.1387C51.8233 26.4 53.2877 27.6222 53.2877 29.8222C53.2877 32.7556 52.0674 33.7333 47.9183 33.7333L53.7758 43.0222H63.5383L57.4368 34.2222C58.413 34.2222 62.318 33.4889 62.318 28.1111C62.318 22.2444 56.4605 22.2444 52.5555 22.2444H35.4712V43.0222H44.2574V26.4H44.5015ZM85.504 22.2444V33.9778C85.504 35.9333 85.0159 37.4 84.2837 38.1333C83.5515 38.8667 82.3312 39.3556 80.8668 39.3556C79.4024 39.3556 78.1821 39.1111 77.4499 38.1333C76.7177 37.1556 76.2296 35.9333 76.2296 33.9778V22.2444H67.4434V34.4667C67.4434 37.8889 68.1755 39.1111 69.6399 40.5778C71.8365 42.7778 75.9855 43.7556 81.1108 43.7556C86.2362 43.7556 90.1412 42.7778 92.5818 40.5778C94.0462 39.1111 94.7784 37.8889 94.7784 34.4667V22.2444H85.504ZM147.984 22.2444H133.828V43.0222H147.984C158.235 43.0222 163.116 40.8222 163.116 32.5111C163.116 24.2 158.479 22.2444 147.984 22.2444ZM147.008 38.8667H142.371V26.4H147.008C151.645 26.4 153.841 28.3556 153.841 32.5111C154.086 36.6667 151.645 38.8667 147.008 38.8667ZM210.464 21.5111C198.993 21.5111 194.112 25.6667 194.112 32.5111C194.112 40.0889 198.993 43.7556 210.464 43.7556C221.691 43.7556 226.816 40.0889 226.816 32.5111C226.572 25.9111 221.691 21.5111 210.464 21.5111ZM210.22 39.3556C205.583 39.3556 203.386 37.1556 203.386 32.5111C203.386 27.8667 205.583 25.6667 210.22 25.6667C214.857 25.6667 217.054 27.8667 217.054 32.5111C217.054 37.4 215.101 39.3556 210.22 39.3556ZM177.516 26.6444H189.719L192.403 22.2444H168.485V43.0222H177.516V36.1778H187.522L190.207 31.7778H177.516V26.6444ZM21.0715 33V39.1111C21.0715 39.1111 18.6308 39.3556 17.4105 39.3556C10.5768 39.3556 9.60053 35.6889 9.60053 32.7556C9.60053 28.3556 12.2852 26.1556 17.8987 26.1556C21.5596 26.1556 23.5121 26.4 26.1968 26.8889L27.4171 27.1333L30.1018 22.4889C24.0002 21.7556 20.0952 21.7556 16.6783 21.7556C5.45147 21.7556 0.326157 25.4222 0.326157 33C0.326157 40.5778 5.45147 43.7556 16.6783 43.7556C21.5596 43.7556 26.1968 43.5111 29.8577 42.5333V33.2444L21.0715 33ZM248.05 30.0667C243.901 29.3333 241.46 29.3333 241.46 27.6222C241.46 25.9111 245.609 25.6667 248.294 25.6667C249.758 25.6667 252.931 25.9111 255.127 26.4L257.568 22.2444C255.86 22 250.978 21.5111 245.853 21.5111C236.579 21.5111 230.477 23.2222 230.477 27.6222C230.477 32.5111 235.602 33.2444 240.728 34.2222C244.633 34.9556 247.317 34.9556 247.317 36.9111C247.317 39.1111 243.901 39.3556 240.484 39.3556C239.507 39.3556 236.579 39.1111 232.918 38.3778L229.745 43.2667C233.65 43.7556 235.358 44 242.68 44C253.175 44 258.056 42.0444 258.056 36.9111C258.056 32.0222 252.931 30.8 248.05 30.0667ZM282.218 43.0222H270.992L286.611 27.3778C286.611 27.3778 287.588 27.8667 289.54 29.8222C291.737 31.7778 292.225 32.7556 292.225 32.7556L282.218 43.0222Z" fill="white"/>
<path d="M277.093 31.0444C271.236 23.9555 269.527 20.7777 268.063 16.8666C267.086 14.4222 265.866 9.77772 268.307 7.33328C270.503 5.13328 274.652 5.86661 279.046 7.82217C283.927 10.0222 289.54 14.1777 294.91 19.0666L312.482 1.46661V12.7111L296.374 28.8444C296.374 28.8444 294.666 26.8888 293.689 26.1555C284.171 16.8666 275.385 12.2222 273.188 14.4222C270.259 17.3555 279.29 27.8666 279.534 28.3555L277.093 31.0444ZM312.726 43.0222H306.381C306.381 43.0222 305.648 40.8222 303.452 37.3999C301.255 33.9777 299.303 32.0222 299.303 32.0222L303.452 27.8666C305.16 30.0666 306.869 32.2666 308.577 34.9555C310.286 37.6444 311.75 40.3333 312.726 43.0222Z" fill="white"/>
</svg>
