<svg width="132" height="24" viewBox="0 0 132 24" fill="none" xmlns="http://www.w3.org/2000/svg">
<g clip-path="url(#clip0_57_281)">
<mask id="mask0_57_281" style="mask-type:luminance" maskUnits="userSpaceOnUse" x="-73" y="-73" width="276" height="195">
<path d="M-72.8794 -72.8937H202.74V121.99H-72.8794V-72.8937Z" fill="white"/>
</mask>
<g mask="url(#mask0_57_281)">
<path d="M45.2794 0.479212H38.2473V9.63609H30.927V0.479212H23.8948V23.5171H30.927V14.4552H38.2473V23.5171H45.2794V0.479212ZM69.7415 18.8879V0.479212H62.7093V23.5171H75.4248L76.4823 18.8879H69.7415ZM57.5104 0.479212H50.4783V23.5171H57.5104V0.479212ZM86.0189 0.479212H78.99V23.5171H86.0189V0.479212ZM120.689 6.35899C120.689 5.10512 121.943 4.52566 123.963 4.52566C126.179 4.52566 128.588 5.01018 130.225 5.68786L129.649 0.672365C127.816 0.286055 126.179 -0.00204086 123.196 -0.00204086C117.513 -0.00204086 113.66 2.24053 113.66 6.93847C113.66 15.0346 124.643 13.3977 124.643 17.1561C124.643 18.5998 123.579 19.3692 120.98 19.3692C118.672 19.3692 115.104 18.5998 112.985 17.5391L113.758 22.8427C115.876 23.6153 118.764 23.9984 121.078 23.9984C126.952 23.9984 131.767 22.0701 131.767 16.2852C131.767 8.57865 120.689 10.0224 120.689 6.35899ZM100.853 18.0236C107.397 18.0236 111.542 14.6483 111.542 8.76853C111.542 2.31256 107.112 -0.00204086 99.8868 -0.00204086C97.0942 -0.00204086 93.7222 0.191114 91.3159 0.479212V23.5171H98.3481V18.0236H100.853ZM104.608 8.86674C104.608 11.8525 103.164 13.879 99.5005 13.879H98.3481V4.35869C98.7573 4.33578 99.1404 4.33577 99.5005 4.33577C102.967 4.33577 104.608 5.97268 104.608 8.86674ZM10.4132 18.0236C16.9609 18.0236 21.1023 14.6483 21.1023 8.76853C21.1023 2.31256 16.6728 -0.00204086 9.45073 -0.00204086C6.65488 -0.00204086 3.28612 0.191114 0.876587 0.479212V23.5171H7.90876V18.0236H10.4132ZM14.1716 8.86674C14.1716 11.8525 12.7246 13.879 9.06442 13.879H7.90876V4.35869C8.31799 4.33578 8.7043 4.33577 9.06442 4.33577C12.5314 4.33577 14.1716 5.97268 14.1716 8.86674Z" fill="white"/>
</g>
</g>
<defs>
<clipPath id="clip0_57_281">
<rect width="130.89" height="24" fill="white" transform="translate(0.87854)"/>
</clipPath>
</defs>
</svg>
