<svg version="1.2" xmlns="http://www.w3.org/2000/svg" viewBox="0 0 256 256" width="256" height="256">
	<title>Docker-svg</title>
	<style>
		.s0 { fill: #364548 } 
		.s1 { fill: #22a0c8 } 
		.s2 { fill: #37b1d9 } 
		.s3 { fill: #1b81a5 } 
		.s4 { fill: #1d91b4 } 
		.s5 { fill: #23a3c2 } 
		.s6 { fill: #34bbde } 
		.s7 { fill: #d3ecec } 
		.s8 { fill: #bdd9d7 } 
	</style>
	<g>
		<path fill-rule="evenodd" class="s0" d="m24 188.2h-1.5q-1.4 0-2.9 0.2-1.4 0.2-2.8 0.5-1.4 0.4-2.7 1-1.3 0.6-2.5 1.3c-7.3 4.3-11.4 10.9-11.4 19.3v1.6q0 1.4 0.2 2.8 0.1 1.5 0.5 2.8 0.4 1.4 1 2.8 0.5 1.3 1.3 2.5c4.2 7.2 10.9 11.4 19.3 11.4h1.5q1.5 0 2.9-0.2 1.4-0.2 2.8-0.6 1.4-0.3 2.7-0.9 1.3-0.6 2.6-1.3c7.2-4.2 11.4-10.9 11.4-19.3v-34.5c0-2.1-1.4-3.9-3.6-3.9h-0.6c-2.2 0-3.6 1.8-3.6 3.9v16.4c-4.1-3.6-8.9-5.8-14.6-5.8zm-14.7 16.9c2.8-5.9 7.5-9.1 14-9.1q4.7 0 8.6 2.7c4.2 3.1 6.7 7.2 6.7 12.4 0 2.8-0.6 5.3-2.1 7.7-3 5-7.4 7.8-13.4 7.8-2.4 0-4.8-0.6-6.9-1.8-5.3-2.9-8.3-7.4-8.3-13.5 0-2.2 0.5-4.3 1.4-6.2zm53-13.9c-7.2 4.3-11.4 10.9-11.4 19.3v1.6q0 1.4 0.2 2.8 0.2 1.5 0.6 2.8 0.3 1.4 0.9 2.8 0.6 1.3 1.3 2.5c4.3 7.2 10.9 11.4 19.3 11.4h1.6c3.9 0 7.6-1 10.9-3 7.3-4.2 11.4-10.9 11.4-19.3v-1.6c0-3.6-0.9-7-2.6-10.1-4.4-7.8-11.2-12.2-20.2-12.2h-1.1c-3.8 0-7.6 1-10.9 3zm-2.3 13.9c2.9-5.9 7.5-9.1 14-9.1q4.5 0 8.2 2.5c4.5 3 7.2 7.2 7.2 12.6 0 2.8-0.7 5.3-2.1 7.7-3 4.9-7.3 7.8-13.1 7.8-2.8 0-5.3-0.6-7.7-2-4.9-3.1-7.8-7.4-7.8-13.3 0-2.2 0.4-4.3 1.3-6.2zm74.1-6.8h0.5l0.1-0.1c1.8-0.3 3.3-1.4 3.3-3.4v-0.7c0-0.7-0.3-1.5-0.7-2.1l-0.1-0.3-0.3-0.2c-3.4-2.3-7.2-3.5-11.4-3.5h-1.5c-3.9 0-7.6 1-11 3-7.2 4.3-11.3 11-11.3 19.4v1.5c0 2 0.2 3.9 0.8 5.8 3.3 11.1 12 17.5 23.6 16.7 3.3-0.2 11.9-1.3 11.9-6v-0.8c0-1.9-1.3-3-3.1-3.4h-0.1-1.5l-0.3 0.1c-1.8 0.9-4.8 2.2-6.9 2.2-2.3 0-5.1-0.2-7.3-1.2-5.9-2.9-9.4-7.5-9.4-14.2 0-2.1 0.4-4.2 1.4-6.2 2.7-5.7 7.4-9.3 13.9-9.1 1.3 0 3.5 0.2 4.6 0.8 1.1 0.5 3.7 1.7 4.8 1.7zm20.4-20.5c0-2.2-1.4-3.9-3.6-3.9h-0.6c-2.2 0-3.6 1.7-3.6 3.9v52.6c0 2.1 1.4 3.8 3.6 3.8h0.6c2.2 0 3.6-1.7 3.6-3.8v-9.4l5.9 5.9c1.8 1.7 3.5 3.5 5.3 5.2 0.9 0.8 2.4 2.3 3.6 2.3h0.7c1.9 0 3-1.4 3.5-3.2v-0.2-0.8c0-0.6-0.2-1.2-0.5-1.7-0.4-0.6-0.9-1.1-1.3-1.5q-0.4-0.4-0.8-0.9-0.4-0.4-0.9-0.8-0.4-0.4-0.8-0.9-0.4-0.4-0.8-0.8-6-6.1-12.1-12.2l9.4-9.5c1.8-1.8 3.7-3.6 5.5-5.5 0.8-0.9 2.3-2.4 2.3-3.7v-0.8c0-1.9-1.3-3-3.1-3.4h-0.1-1.4c-1.3 0-4.5 3.5-5.4 4.3q-4.5 4.5-9 9zm84.1 14.7c-6.2 4.4-9.9 10.6-9.9 18.2v19.9c0 2.1 1.3 3.8 3.6 3.8h0.6c2.2 0 3.6-1.7 3.6-3.8v-18.8c0-4.1 1.3-7.9 4.3-10.9 2.4-2.3 5.7-4.4 9.2-4.4 2.6 0 5.7-0.9 5.7-4.1 0-2.3-1.6-3.8-3.9-3.8h-0.8c-4.5 0-8.7 1.3-12.4 3.9zm-27.2 19.9c2.3-2 4.7-4.2 7.1-6.1 2.1-1.6 4.1-3.9 2.5-6.6l-0.3-0.7c-2.2-3.7-5.3-6.5-9.1-8.4-7.1-3.5-14.5-3.7-21.4 0.3l-1.1 0.6c-2.8 1.6-5.2 3.7-7 6.3-5.4 7.8-6 16.4-1.3 24.6l0.5 0.8c2 3.4 4.6 6.2 8.1 8.1 7.4 4 15.2 4.6 22.5 0.3l0.7-0.4c2-1.1 2.5-3.1 1.5-5.2-0.5-0.8-1.3-1.4-2.1-1.8l-0.2-0.1-0.3-0.1c-1.3-0.2-5.1 1.4-6.6 2.1-2.9 0.5-6.1 0.6-8.9-0.4q7.7-6.6 15.4-13.3zm-23.6 6.6c-1.3-2.1-1.9-4.4-2-6.8-0.2-6.1 2.1-11.1 7.4-14.2 4.1-2.3 8.5-2.9 13-1.2 2.2 0.8 4.8 2.3 6.4 4.2-1.9 1.8-4.1 3.6-6.1 5.2q-8.6 7.5-17.2 14.9-0.8-1-1.5-2.1zm-40.3-199h-27.5v22.9h-45.7v22.9h-22.9v23.4h-19.5l-0.3 3.4c-1.1 11.6 0.5 23.1 5.3 33.6l2 4.2 0.2 0.4c14.1 24 38.9 34.1 65.9 34.1 52.3 0 95.4-23.4 115.2-72.7 13.2 0.7 26.7-3.2 33.2-15.8l1.7-3.3-3.2-1.8c-7.6-4.4-17.8-5-26.5-2.4-1.1-9.3-7.1-17.4-14.4-23.2l-2.8-2.3-2.4 2.8c-4.9 5.6-6.3 14.9-5.6 22 0.4 5.3 2.1 10.6 5.3 14.8-2.4 1.5-5.2 2.6-7.7 3.5-5.1 1.7-10.5 2.7-15.9 2.7h-11.5v-23.4h-22.9z"/>
		<path fill-rule="evenodd" class="s1" d="m221.6 74.4c1.5-11.9-7.4-21.3-12.9-25.7-6.4 7.3-7.4 26.6 2.6 34.8-5.6 4.9-17.3 9.4-29.4 9.4h-146.5c-1.2 12.6 1 24.2 6 34.1l1.7 3q0.4 0.7 0.8 1.3 0.4 0.7 0.9 1.4 0.4 0.6 0.8 1.2 0.5 0.7 1 1.3 9 0.6 16.6 0.4c10-0.2 18.2-1.4 24.3-3.5 0.5-0.2 1-0.1 1.4 0.1 0.4 0.2 0.7 0.5 0.8 1 0.2 0.4 0.2 0.9 0 1.3-0.2 0.4-0.6 0.7-1 0.9q-1.2 0.4-2.6 0.8c-4.8 1.4-10 2.3-16.8 2.7 0.4 0-0.4 0.1-0.4 0.1-0.2 0-0.5 0-0.7 0.1-2.7 0.1-5.5 0.1-8.5 0.1-3.2 0-6.3 0-9.8-0.2l-0.1 0.1c12.2 13.7 31.3 21.9 55.2 21.9 50.7 0 93.6-22.4 112.6-72.8 13.5 1.3 26.5-2.1 32.4-13.6-9.4-5.4-21.5-3.7-28.4-0.2z"/>
		<path fill-rule="evenodd" class="s2" d="m221.6 74.4c1.5-11.9-7.4-21.3-12.9-25.7-6.4 7.3-7.4 26.6 2.6 34.8-5.6 4.9-17.3 9.4-29.4 9.4h-137.9c-0.5 19.3 6.6 33.9 19.2 42.7 10-0.2 18.2-1.4 24.3-3.5 0.5-0.2 1-0.1 1.4 0.1 0.4 0.2 0.7 0.5 0.8 1 0.2 0.4 0.2 0.9 0 1.3-0.2 0.4-0.6 0.7-1 0.9q-1.2 0.4-2.6 0.8c-4.8 1.4-10.5 2.4-17.2 2.9 0 0-0.2-0.2-0.2-0.2 17.2 8.8 42.2 8.8 70.9-2.2 32.1-12.3 62-35.9 82.9-62.8q-0.5 0.3-0.9 0.5z"/>
		<path fill-rule="evenodd" class="s3" d="m35.6 108.2c1 6.7 2.9 13 5.8 18.8l1.7 3q0.4 0.7 0.8 1.3 0.4 0.7 0.9 1.4 0.4 0.6 0.8 1.2 0.5 0.7 1 1.3 9 0.6 16.6 0.4c10-0.2 18.2-1.4 24.3-3.5 0.5-0.2 1-0.1 1.4 0.1 0.4 0.2 0.7 0.5 0.8 1 0.2 0.4 0.2 0.9 0 1.3-0.2 0.4-0.6 0.7-1 0.9q-1.2 0.4-2.6 0.8c-4.8 1.4-10.5 2.4-17.2 2.8-0.2 0-0.6 0-0.9 0-2.6 0.2-5.4 0.3-8.4 0.3-3.2 0-6.4-0.1-9.9-0.3 12.2 13.7 31.4 22 55.3 22 43.4 0 81.1-16.4 103-52.8z"/>
		<path fill-rule="evenodd" class="s4" d="m45.4 108.2c2.6 11.8 8.8 21.1 17.8 27.4 10-0.2 18.2-1.4 24.3-3.5 0.5-0.2 1-0.1 1.4 0.1 0.4 0.2 0.7 0.5 0.8 1 0.2 0.4 0.2 0.9 0 1.3-0.2 0.4-0.6 0.7-1 0.9q-1.2 0.4-2.6 0.8c-4.8 1.4-10.6 2.4-17.3 2.8 17.2 8.8 42.1 8.7 70.8-2.3 17.3-6.7 34-16.6 49-28.5z"/>
		<path fill-rule="evenodd" class="s5" d="m55.3 69.5h19.8v19.9h-19.8zm1.6 18.1h1.6v-16.5h-1.6zm3 0h1.6v-16.5h-1.6c0 0 0 16.5 0 16.5zm3 0h1.6v-16.5h-1.6zm3 0h1.6v-16.5h-1.6zm3 0h1.6v-16.5h-1.6zm3 0h1.5v-16.5h-1.5zm6.2-41.1h19.8v19.8h-19.8c0 0 0-19.8 0-19.8zm1.7 18.2h1.5v-16.5h-1.5zm2.9 0h1.6v-16.5h-1.6c0 0 0 16.5 0 16.5zm3 0h1.6v-16.5h-1.6zm3 0h1.6v-16.6h-1.6zm3 0h1.7v-16.5h-1.7zm3 0h1.6v-16.5h-1.6z"/>
		<path fill-rule="evenodd" class="s6" d="m78.1 69.5h19.8v19.9h-19.8c0 0 0-19.9 0-19.9zm1.7 18.2h1.5v-16.5h-1.5zm2.9 0h1.6v-16.5h-1.6c0 0 0 16.5 0 16.5zm3 0h1.6v-16.5h-1.6zm3 0h1.6v-16.5h-1.6zm3 0h1.7v-16.6h-1.7zm3 0h1.6v-16.5h-1.6z"/>
		<path fill-rule="evenodd" class="s5" d="m101 69.5h19.8v19.9h-19.8zm1.6 18.1h1.6v-16.5h-1.6zm3 0h1.6v-16.5h-1.6zm3 0h1.6v-16.5h-1.6zm3 0h1.6v-16.5h-1.6zm3 0h1.6v-16.5h-1.6zm3 0h1.6v-16.6h-1.6z"/>
		<path fill-rule="evenodd" class="s6" d="m101 46.7h19.8v19.8h-19.8zm1.6 18.2h1.6v-16.6h-1.6zm3 0h1.6v-16.5h-1.6zm3 0h1.6v-16.5h-1.6zm3 0h1.6v-16.5h-1.6zm3 0h1.6v-16.5h-1.6zm3 0h1.6v-16.5h-1.6zm6.3 4.7h19.8v19.8h-19.8zm1.6 18.2h1.6v-16.6h-1.6zm3 0h1.6v-16.5h-1.6zm3 0h1.6v-16.5h-1.6zm3 0h1.6v-16.5h-1.6zm3 0h1.6v-16.5h-1.6zm3 0h1.5v-16.5h-1.5z"/>
		<path fill-rule="evenodd" class="s5" d="m123.9 46.7h19.8v19.8h-19.8zm1.6 18.2h1.6v-16.6h-1.6zm3 0h1.6v-16.5h-1.6zm3 0h1.6v-16.5h-1.6zm3 0h1.6v-16.5h-1.6zm3 0h1.6v-16.5h-1.6zm3 0h1.5v-16.5h-1.5z"/>
		<path fill-rule="evenodd" class="s6" d="m123.9 23.8h19.8v19.8h-19.8zm1.6 18.2h1.6v-16.5h-1.6c0 0 0 16.5 0 16.5zm3 0h1.6v-16.5h-1.6c0 0 0 16.5 0 16.5zm3 0h1.6v-16.5h-1.6c0 0 0 16.5 0 16.5zm3 0h1.6v-16.5h-1.6c0 0 0 16.5 0 16.5zm3 0h1.6v-16.5h-1.6c0 0 0 16.5 0 16.5zm3 0h1.5v-16.5h-1.5c0 0 0 16.5 0 16.5z"/>
		<path fill-rule="evenodd" class="s5" d="m146.7 69.5h19.8v19.9h-19.8zm1.7 18.1h1.5v-16.5h-1.5c0 0 0 16.5 0 16.5zm2.9 0h1.6v-16.5h-1.6c0 0 0 16.5 0 16.5zm3 0h1.6v-16.5h-1.6zm3 0h1.6v-16.5h-1.6zm3 0h1.7v-16.5h-1.7zm3 0h1.6v-16.5h-1.6z"/>
		<path fill-rule="evenodd" class="s7" d="m96.7 121.5c1.5 0 2.9 0.5 3.9 1.6 1.1 1 1.6 2.4 1.6 3.9 0 1.4-0.5 2.8-1.6 3.9-1 1-2.4 1.5-3.9 1.5-1.4 0-2.8-0.6-3.8-1.6-1-1-1.6-2.4-1.6-3.8 0-1.5 0.6-2.9 1.6-3.9 1-1 2.4-1.6 3.8-1.6z"/>
		<path fill-rule="evenodd" class="s0" d="m93 125.8c-0.5 1.7 0.1 3.5 1.5 4.4 1.5 1 3.4 0.9 4.7-0.2 1.3-1.1 1.8-3 1.1-4.5-0.3 0.5-0.8 0.8-1.4 0.8q-0.5 0-1-0.3-0.4-0.4-0.5-0.9-0.2-0.5 0-1 0.3-0.5 0.7-0.8-0.6-0.3-1.4-0.3c-1.7 0-3.2 1.2-3.7 2.8zm-93-15.6h254.3c-5.5-1.4-17.5-3.3-15.5-10.6-10.1 11.7-34.4 8.2-40.5 2.4-6.8 9.9-46.6 6.2-49.3-1.5-8.6 10-35.1 10-43.6 0-2.8 7.7-42.5 11.4-49.4 1.5-6.1 5.8-30.4 9.3-40.5-2.4 2 7.3-10 9.2-15.5 10.6z"/>
		<path fill-rule="evenodd" class="s8" d="m111.2 160.9c-13.5-6.4-20.9-15.2-25.1-24.7q-7.5 2.2-18.1 2.7-3.9 0.3-8.3 0.3-5.1 0-10.7-0.3c12.5 12.4 27.7 21.9 56 22.1q3.1 0 6.2-0.1z"/>
		<path fill-rule="evenodd" class="s7" d="m91.2 145c-1.9-2.5-3.7-5.7-5.1-8.8q-7.5 2.2-18.1 2.7c4.9 2.7 11.8 5.1 23.2 6.1z"/>
	</g>
</svg>