<svg version="1.2" xmlns="http://www.w3.org/2000/svg" viewBox="0 0 495 141" width="495" height="141">
	<title>Jquery-svg</title>
	<style>
		.s0 { fill: #ffffff } 
	</style>
	<path fill-rule="evenodd" class="s0" d="m141.5 55.3l-4 14zm-6.8 51.4l26.1-0.1h-0.1zm28.4-1.9l4.6-17.3-4.6 17.3zm74.3-79.8l-6.4 29.7 6.4-29.7zm-75.4 60.7l-4.4-0.1zm4.4 0.1l-4.4-0.1zm92.9-60.7l-8.5 39.8z"/>
	<path class="s0" d="m257.6 23.2h-18.1c-1 0-2 0.8-2.2 1.8l-6.4 29.7-6.5 29.7c-0.2 1-1.2 1.8-2.2 1.8h-12.8c-12.7 0-11.2-8.7-8.6-20.7l0.1-0.4 0.2-1.5q0.1-0.2 0.1-0.3l0.6-3.1 0.6-3.3c0.2-1 0.5-2.5 0.7-3.4l2.9-14.2 2.9-14.3c0.2-1-0.5-1.8-1.5-1.8h-18.5c-1 0-2 0.8-2.2 1.8l-4 18.9-4 19q0 0 0 0l-0.4 1.8c-4.6 21-3.4 41 21.6 41.7 0.4 0 0.7 0 0.7 0h39.3c1 0 2-0.8 2.2-1.8l8.5-39.8 8.5-39.8c0.2-1-0.5-1.8-1.5-1.8zm72.2 63.2c1 0 1.7 0.8 1.5 1.8l-1.8 8.6m-1.7 8.6l1.7-8.6-1.7 8.6zm-2.2 1.8c-5.3 0.1-21.4 0.2-33.4 0.2 14.7 0 33.4-0.2 33.4-0.2zm-44.2-31.8c0-1 1.1-2.6 2.1-2.6h-2.3c-1 10.2 0.2 2.6 0.2 2.6z"/>
	<path fill-rule="evenodd" class="s0" d="m329.8 86.4c1 0 1.7 0.8 1.5 1.8l-1.8 8.6-0.2 1.4m-3.7 9q-0.1 0-0.3 0 0.2 0 0.3 0zm-0.3 0c-4.1 0.1-13.5 0.1-22.9 0.2 9.4-0.1 18.8-0.1 22.9-0.2zm2.5-1.8l1.5-7.2-1.5 7.2zm-298.4-26.8l0.2-1.2 3.2-14.3-2.8 12.5c-0.2 0.8-0.4 2-0.6 3zm-2.9 13.3l2.7-12.7q0.1-0.3 0.2-0.6zm38.6-67.2l-1.9 8.3-1.8 8.4c-0.2 1-1.2 1.8-2.2 1.8h-20c-1 0-1.7-0.8-1.5-1.8l1.9-8.4 1.9-8.3c0.2-1 1.2-1.8 2.2-1.8h19.9c1 0 1.7 0.8 1.5 1.8zm-11.6 52.9l5.8-27zm-51.9 62.4c3.5 0.1 11.5 0.2 16.4 0.2-6.4 0-16.4-0.2-16.4-0.2zm292.2-32.6q-0.1 0-0.3 0 0.2 0 0.3 0zm8.6 0h-0.1zm-4.4 0h-0.3zm-1.3 0q-0.3 0-0.5 0 0.2 0 0.5 0zm-1.4 0h-0.4zm2.5 0h-1.1zm-1.5 0h-1zm-2.7 0h-1.3zm1.4 0h-1zm-259.3-56.8l-2.8 12.5z"/>
	<path fill-rule="evenodd" class="s0" d="m59.4 50.7l-5.9 26.9-6.2 28.8c-5.3 25.1-13.6 33.8-29.3 33.8-4.8 0-12.8-0.1-16.4-0.2-1 0-1.6-0.8-1.4-1.8l2.1-8.7 2-8.7c0.3-1 1.3-1.8 2.3-1.8 0 0 2.4 0.1 5.4 0.1q0.1 0 0.2 0 0.1 0 0.2 0 0.1 0 0.2 0.1 0.1 0 0.2 0c6.3 0.1 10.1-11.1 10.1-11.1 0.3-0.9 0.7-2.5 0.9-3.5l2.7-12.7 2.7-12.7c0.3-1 0.6-2.6 0.8-3.6l2.8-12.5 2.9-12.4c0.2-1 1.2-1.8 2.2-1.8h20c1 0 1.7 0.8 1.5 1.8zm283.2 55.7c-1 0-1.6-0.8-1.4-1.8l15-70.6zm21-1.8l6.1-30.2z"/>
	<path fill-rule="evenodd" class="s0" d="m342.6 106.4c-1 0-1.7-0.8-1.4-1.8l7.5-35.3-7.2 33.5c-0.2 1-0.2 2.2-0.1 2.7 0.1 0.5 2 0.9 3 0.9zm21.3-3.6l-0.3 1.8c-0.2 1-1.2 1.8-2.2 1.8h-1.8c1 0 2.2-0.2 2.8-0.4 0.5-0.3 1.3-2.2 1.5-3.2zm0 0q0 0 0 0zm2.7-13.3l2.7-13.3q0 0 0 0.1zm59.5-50.9l0.8 3.5c0.3 1-0.4 1.8-1.4 1.8zm-56.4 35.7l3.2-15.3-2.8 13.5c-0.2 1-0.6 2.6-0.8 3.6zm-13.4-40.5l-7.5 35.3 7.1-33.5c0.2-0.8 0.5-2 0.7-3zm7.6 68.9l2.7-13.3zm61.4-67.6l0.8 3.5z"/>
	<path class="s0" d="m426.9 42.1l-0.8-3.4-0.8-3.5-0.5-1.8c-1.6-6.3-6.4-10-16.7-10h-16.2-14.9-16.7c-1 0-2 0.8-2.2 1.8l-0.7 3.5-0.9 4.1-0.3 1.2-7.5 35.3-7.2 33.5c-0.2 1-0.2 2.2-0.1 2.7 0.1 0.5 2 0.9 3 0.9h15.1c1.1 0 2.3-0.2 2.9-0.4 0.5-0.3 1.3-2.2 1.5-3.2l2.7-13.3 2.7-13.3q0 0 0 0l0.4-1.8 3.2-15.2 2.9-13.5c0.2-1 1.2-1.8 2.2-1.8h47.5c1 0 1.6-0.8 1.4-1.8z"/>
	<path fill-rule="evenodd" class="s0" d="m493.8 11.1c1 0 1.4 0.6 0.8 1.4l-54.6 72.5c-0.7 0.8-1.4 2.2-1.6 3.2l-4.2 16.4c-0.3 1-1.3 1.8-2.3 1.8h-21.4c-1 0-1.6-0.8-1.4-1.8l4.3-16.4c0.2-1 0.2-2.6-0.1-3.5l-9.7-34c-0.2-0.9 0.4-1.7 1.4-1.7h21.6c1 0 2 0.8 2.2 1.8l2.5 10.8c0.2 1 0.9 1.1 1.4 0.3l33.7-49.3c0.5-0.8 1.8-1.5 2.8-1.5h15.2c1 0 2.7 0 3.7 0zm-157.8 59.9q0 0.3-0.1 0.5c-0.3 0.8-1.1 1.3-1.9 1.3q-0.1 0-0.1 0.1v-0.1h-52.3c-1.4 10.2 2.5 13.7 15.5 13.7h32.7c1 0 1.7 0.8 1.5 1.8l-1.8 8.6-0.3 1.4-1.5 7.2c-0.2 0.9-1.1 1.7-2.1 1.8-3.9 0-13.6 0.1-23.2 0.1h-0.1q-2.2 0-4.3 0h-0.3-1.1q-0.2 0-0.4 0h-2.4q-0.2 0-0.3 0h-1.3c-36.4 0-36.8-20.5-32.2-42.5 4.7-21.5 13.1-42.9 48.2-42.9 33.3 0 35.6 19.7 27.8 49zm-32.4-29.1c-10.1 0-15.4 4.6-18 11.6-0.1 0.2-0.1 0.4-0.1 0.4q0 0.1-0.1 0.1 0.1 0 0.1 0 0 0-0.1 0.1c-0.1 0.8 0.4 1.4 1.3 1.4h27.4c1 0 2.1-0.8 2.2-1.9 0.8-6.2-1.5-11.7-12.7-11.7zm-147.3 42.1q0 0 0 0.1-0.1 0-0.1 0.1 0 0 0 0.1 0 0 0 0.1c-0.1 0.7 0.4 1.3 1.2 1.3h4.4 4.3c1 0 1.7 0.8 1.4 1.8l-4.5 17.3c-0.3 1-1.3 1.8-2.3 1.8l-26.1 0.1-27.9 0.1c-35.4 0.2-43.2-24.4-37.3-52.5 5.9-27.8 21.4-53.4 57-53.4 35.8 0 45.1 26.8 42 45.3-2.3 13.8-12.1 37.8-12.1 37.8zm-34.8-61.2c-15.6 1.2-23.2 12.8-27 31.5-3.9 18.3 0 30.7 15.8 30.7h20.9c1 0 2.1-0.7 2.4-1.7l3.9-14 4-14 0.4-1.8c5.2-17.3 0.9-32.3-20.4-30.7z"/>
	<path class="s0" d="m332.5 67.9c0 0.7-0.5 1.2-1.2 1.2-0.6 0-1.2-0.5-1.2-1.2 0-0.6 0.6-1.2 1.2-1.2 0.7 0 1.2 0.6 1.2 1.2z"/>
</svg>