<svg width="297" height="52" viewBox="0 0 297 52" fill="none" xmlns="http://www.w3.org/2000/svg">
<path d="M26.5345 37.0245C20.4902 37.0245 15.5972 32.0905 15.5972 26.0097C15.5972 19.9289 20.4902 14.9949 26.5345 14.9949C32.5788 14.9949 37.4719 19.9289 37.4719 26.0097C37.4719 32.0905 32.5692 37.0245 26.5345 37.0245Z" fill="white"/>
<path d="M8.59341 26.0096C8.59341 35.9837 16.6237 44.0786 26.5249 44.0786C29.1825 44.0786 31.6962 43.4811 33.97 42.4307V50.9014C31.6098 51.6145 29.1153 52 26.5345 52C12.2776 52 0.726196 40.3588 0.726196 26C0.726196 11.6412 12.2872 0 26.5345 0C29.1249 0 31.6194 0.38547 33.97 1.09859V9.56931C31.6962 8.52854 29.1825 7.92142 26.5249 7.92142C16.6237 7.9407 8.59341 16.0356 8.59341 26.0096Z" fill="white"/>
<path d="M49.9155 37.0245H40.7242C43.0556 33.9793 44.466 30.1631 44.466 26.0193C44.466 21.8659 43.0556 18.0497 40.7242 14.9949H49.9155C51.4697 18.3388 52.3524 22.0779 52.3524 26.0193C52.3428 29.9511 51.4697 33.6806 49.9155 37.0245Z" fill="white"/>
<path d="M84.8822 32.0727C87.0724 32.0727 88.8527 31.1847 89.9181 30.028V36.4581C88.3791 37.1685 86.5715 37.5237 84.7639 37.5237C78.2482 37.5237 73.0028 32.3368 73.0028 25.9978C73.0028 19.6588 78.2482 14.4719 84.7639 14.4719C86.5715 14.4719 88.3791 14.859 89.9181 15.5375V21.9676C88.8527 20.8109 87.0724 19.9229 84.8822 19.9229C81.358 19.9229 78.8082 22.5004 78.8082 25.9978C78.8082 29.4952 81.358 32.0727 84.8822 32.0727ZM104.639 14.4719C111.068 14.4719 116.19 19.6588 116.19 25.9978C116.19 32.3368 111.063 37.5237 104.639 37.5237C98.2141 37.5237 93.0872 32.3368 93.0872 25.9978C93.0872 19.6588 98.2415 14.4719 104.639 14.4719ZM104.639 19.8637C101.47 19.8637 98.8926 22.382 98.8926 25.9978C98.8926 29.6136 101.47 32.1319 104.639 32.1319C107.808 32.1319 110.385 29.6136 110.385 25.9978C110.385 22.382 107.808 19.8637 104.639 19.8637ZM125.255 14.8271L134.735 27.8649V14.8271H140.303V37.1685H135.354L125.546 23.9258V37.1685H119.978V14.8271H125.255ZM156.271 32.0727C158.462 32.0727 160.242 31.1847 161.307 30.028V36.4581C159.768 37.1685 157.961 37.5237 156.153 37.5237C149.637 37.5237 144.392 32.3368 144.392 25.9978C144.392 19.6588 149.637 14.4719 156.153 14.4719C157.961 14.4719 159.768 14.859 161.307 15.5375V21.9676C160.242 20.8109 158.462 19.9229 156.271 19.9229C152.747 19.9229 150.197 22.5004 150.197 25.9978C150.197 29.4952 152.747 32.0727 156.271 32.0727ZM176.028 14.4719C182.457 14.4719 187.58 19.6588 187.58 25.9978C187.58 32.3368 182.453 37.5237 176.028 37.5237C169.603 37.5237 164.476 32.3368 164.476 25.9978C164.476 19.6588 169.631 14.4719 176.028 14.4719ZM176.028 19.8637C172.859 19.8637 170.282 22.382 170.282 25.9978C170.282 29.6136 172.859 32.1319 176.028 32.1319C179.197 32.1319 181.774 29.6136 181.774 25.9978C181.774 22.382 179.197 19.8637 176.028 19.8637ZM197.415 29.1673V37.1685H191.668V14.8271H199.045C204.349 14.8271 207.992 17.4365 207.992 21.9995C207.992 24.9914 206.184 27.1864 203.402 28.3112L210.514 37.1685H203.52L197.419 29.1673H197.415ZM197.415 24.8411H199.013C200.939 24.8411 202.095 23.8028 202.095 22.1725C202.095 20.5423 200.939 19.5358 199.013 19.5358H197.415V24.8411ZM221.173 14.8271C227.571 14.8271 232.725 19.6269 232.725 25.9978C232.725 32.3687 227.571 37.1685 221.173 37.1685H213.087V14.8271H221.173ZM220.786 19.5996H218.892V32.4006H220.727C224.488 32.4006 226.92 29.436 226.92 26.0024C226.92 22.5687 224.488 19.6042 220.786 19.6042V19.5996ZM242.619 37.1685H236.814V14.8271H242.619V37.1685ZM260.513 28.1928V14.8317H266.319V28.1655C266.319 34.1219 262.262 37.5282 256.925 37.5282C251.589 37.5282 247.532 34.1219 247.532 28.1655V14.8317H253.337V28.1928C253.337 31.0071 254.758 32.4006 256.921 32.4006C259.084 32.4006 260.504 31.0071 260.504 28.1928H260.513Z" fill="white"/>
<path d="M276.919 22.2363H276.75V37.1685H271.4V14.8272H279.924L284.145 27.5097L288.807 14.8272H296.716V37.1685H291.366V22.2363H291.198L285.811 37.1685H282.305L276.919 22.2363Z" fill="white"/>
</svg>
