<svg width="685" height="188" viewBox="0 0 685 188" fill="none" xmlns="http://www.w3.org/2000/svg">
<path d="M118.841 63.196C118.071 60.0592 116.858 57.3071 115.201 54.9396C113.544 52.513 111.472 50.4711 108.987 48.8139C106.56 47.0975 103.719 45.825 100.464 44.9964C97.2678 44.1087 93.7462 43.6648 89.8991 43.6648C81.6132 43.6648 74.5405 45.6475 68.6811 49.6129C62.8809 53.5784 58.442 59.2898 55.3644 66.7472C52.3459 74.2045 50.8366 83.2008 50.8366 93.7358C50.8366 104.389 52.2867 113.504 55.1868 121.08C58.0869 128.655 62.4074 134.455 68.1484 138.48C73.8894 142.505 81.0213 144.517 89.544 144.517C97.0606 144.517 103.305 143.422 108.276 141.232C113.307 139.042 117.065 135.935 119.551 131.911C122.037 127.886 123.28 123.151 123.28 117.706L131.803 118.594H90.2543V83.4375H170.865V108.651C170.865 125.223 167.344 139.397 160.3 151.175C153.317 162.894 143.669 171.89 131.359 178.164C119.107 184.379 105.051 187.486 89.1889 187.486C71.4924 187.486 55.9562 183.728 42.5803 176.211C29.2043 168.694 18.7581 157.982 11.2415 144.073C3.78409 130.165 0.0553984 113.622 0.0553984 94.446C0.0553984 79.4129 2.33404 66.0961 6.89134 54.4957C11.5078 42.8954 17.8999 33.1001 26.0675 25.1101C34.2351 17.0608 43.6752 10.9943 54.3878 6.9105C65.1004 2.76751 76.5824 0.696016 88.8338 0.696016C99.6056 0.696016 109.608 2.23484 118.841 5.3125C128.133 8.33096 136.33 12.6515 143.433 18.2741C150.594 23.8376 156.365 30.4368 160.744 38.0717C165.124 45.7067 167.787 54.0814 168.734 63.196H118.841ZM218.686 185V3.18181H268.046V74.2045H333.387V3.18181H382.748V185H333.387V113.977H268.046V185H218.686ZM482.819 125.341V48.6364H531.825V185H485.305V159.077H483.884C480.925 167.777 475.746 174.583 468.348 179.496C460.95 184.349 452.161 186.776 441.981 186.776C432.452 186.776 424.107 184.586 416.945 180.206C409.843 175.826 404.309 169.789 400.344 162.095C396.438 154.401 394.455 145.582 394.396 135.639V48.6364H443.401V125.341C443.461 132.088 445.177 137.385 448.551 141.232C451.983 145.079 456.777 147.003 462.933 147.003C467.017 147.003 470.538 146.145 473.497 144.428C476.516 142.653 478.824 140.167 480.422 136.971C482.079 133.716 482.878 129.839 482.819 125.341ZM543.539 185V3.18181H592.545V72.429H593.255C595.031 67.8125 597.635 63.5807 601.067 59.7337C604.5 55.8274 608.762 52.7202 613.852 50.4119C618.942 48.0445 624.86 46.8608 631.607 46.8608C640.603 46.8608 649.156 49.2578 657.264 54.0518C665.432 58.8459 672.061 66.392 677.151 76.6903C682.3 86.9886 684.874 100.365 684.874 116.818C684.874 132.562 682.418 145.612 677.506 155.969C672.652 166.327 666.142 174.051 657.974 179.141C649.866 184.231 640.959 186.776 631.252 186.776C624.86 186.776 619.149 185.74 614.118 183.668C609.146 181.538 604.885 178.667 601.334 175.057C597.842 171.387 595.149 167.244 593.255 162.628H592.19V185H543.539ZM591.479 116.818C591.479 123.447 592.338 129.188 594.054 134.041C595.83 138.835 598.315 142.564 601.511 145.227C604.767 147.831 608.643 149.134 613.141 149.134C617.639 149.134 621.457 147.861 624.594 145.316C627.79 142.712 630.216 139.013 631.874 134.219C633.59 129.366 634.448 123.565 634.448 116.818C634.448 110.071 633.59 104.3 631.874 99.5064C630.216 94.6532 627.79 90.9541 624.594 88.4091C621.457 85.8049 617.639 84.5028 613.141 84.5028C608.643 84.5028 604.767 85.8049 601.511 88.4091C598.315 90.9541 595.83 94.6532 594.054 99.5064C592.338 104.3 591.479 110.071 591.479 116.818Z" fill="url(#paint0_linear_4_52)"/>
<defs>
<linearGradient id="paint0_linear_4_52" x1="712.5" y1="8.00002" x2="6.83653" y2="184.346" gradientUnits="userSpaceOnUse">
<stop stop-color="#ECF004"/>
<stop offset="0.519888" stop-color="#4FA611"/>
<stop offset="0.885" stop-color="#00BFFF"/>
<stop offset="1" stop-color="#62B8FF"/>
</linearGradient>
</defs>
</svg>
