<svg width="78" height="24" viewBox="0 0 78 24" fill="none" xmlns="http://www.w3.org/2000/svg">
<path d="M5.54347 2.05748L10.5012 15.3629L15.3922 2.22284C16.0759 0.365681 17.1189 0.200317 17.7708 0.200317C19.1065 0.200317 20.2831 1.24338 20.2831 2.54721C20.2831 2.97016 20.2195 3.32951 20.0541 3.72066L13.0103 21.6563C12.2916 23.5134 11.5443 23.8092 10.498 23.8092C9.64895 23.8092 8.77125 23.6788 7.95397 21.5927L1.13907 4.27399C0.878309 3.62207 0.716125 3.23093 0.716125 2.54721C0.716125 1.24338 1.88957 0.200317 3.22838 0.200317C4.37003 0.200317 5.15233 1.01442 5.54347 2.06066V2.05748Z" fill="white"/>
<path d="M19.4659 21.5259C19.4659 21.2333 19.4977 21.0044 19.7266 20.3524L26.1822 2.87477C26.8341 1.11301 28.1729 0.00634766 29.7375 0.00634766C31.3021 0.00634766 32.6059 0.98581 33.1942 2.64899L39.618 20.486C39.7802 20.9408 39.8788 21.3669 39.8788 21.6595C39.8788 22.8997 38.8357 23.8124 37.6304 23.8124C36.228 23.8124 35.5443 23.0301 35.2168 22.0188L34.2723 19.0518H25.2059L24.2264 22.0856C23.9021 23.065 23.247 23.8124 21.8478 23.8124C20.5757 23.8124 19.4659 22.8329 19.4659 21.5291V21.5259ZM26.6083 14.5456H32.8031L29.7693 5.0881H29.7057L26.6083 14.5456Z" fill="white"/>
<path d="M56.8031 3.26275C56.8031 4.59838 55.8904 5.67643 54.6184 5.67643C53.4449 5.67643 52.0107 4.69697 50.3126 4.69697C48.6144 4.69697 47.6063 5.60965 47.6063 6.81489C47.6063 7.88976 48.8466 8.54167 51.0949 9.12999C57.2578 10.6946 58.4981 13.3054 58.4981 16.4346C58.4981 20.8708 54.8792 24 50.1504 24C45.9113 24 42.2256 22.7948 42.2256 20.3493C42.2256 19.0136 43.1383 18.0342 44.4104 18.0342C45.8128 18.0342 47.8671 19.3062 49.8896 19.3062C51.9121 19.3062 53.216 18.1964 53.216 16.5014C53.216 15.1658 51.9121 14.4471 49.2695 13.7951C43.8888 12.4595 42.3242 10.4688 42.3242 7.40321C42.3242 2.90341 46.0099 0 50.4112 0C53.1492 0 56.8031 1.04306 56.8031 3.25957V3.26275Z" fill="white"/>
<path d="M75.9789 3.26275C75.9789 4.59838 75.0663 5.67643 73.7942 5.67643C72.6208 5.67643 71.1866 4.69697 69.4884 4.69697C67.7903 4.69697 66.7822 5.60965 66.7822 6.81489C66.7822 7.88976 68.0224 8.54167 70.2707 9.12999C76.4337 10.6946 77.6739 13.3054 77.6739 16.4346C77.6739 20.8708 74.055 24 69.3262 24C65.0872 24 61.4015 22.7948 61.4015 20.3493C61.4015 19.0136 62.3142 18.0342 63.5862 18.0342C64.9886 18.0342 67.0429 19.3062 69.0655 19.3062C71.088 19.3062 72.3918 18.1964 72.3918 16.5014C72.3918 15.1658 71.088 14.4471 68.4453 13.7951C63.0647 12.4595 61.5001 10.4688 61.5001 7.40321C61.5001 2.90341 65.1858 0 69.587 0C72.325 0 75.9789 1.04306 75.9789 3.25957V3.26275Z" fill="white"/>
</svg>
